<?xml version="1.0" encoding="utf-8"?>
<!-- Generator: Adobe Illustrator 20.1.0, SVG Export Plug-In . SVG Version: 6.00 Build 0)  -->
<svg version="1.1" id="Calque_1" xmlns="http://www.w3.org/2000/svg" xmlns:xlink="http://www.w3.org/1999/xlink" x="0px" y="0px"
	 viewBox="0 0 392 392" style="enable-background:new 0 0 392 392;" xml:space="preserve">
<style type="text/css">
	.st0{display:none;}
	.st1{display:inline;}
	.st2{clip-path:url(#SVGID_2_);}
	.st3{clip-path:url(#SVGID_4_);fill:#FFFFFF;}
	.st4{clip-path:url(#SVGID_6_);fill:#FFFFFF;}
	.st5{clip-path:url(#SVGID_8_);fill:#FFFFFF;}
</style>
<g id="Calque_2" class="st0">
	<rect class="st1" width="392" height="392"/>
</g>
<g>
	<g>
		<g>
			<g>
				<defs>
					<rect id="SVGID_1_" x="0.1" width="391.9" height="392"/>
				</defs>
				<clipPath id="SVGID_2_">
					<use xlink:href="#SVGID_1_"  style="overflow:visible;"/>
				</clipPath>
				<g id="Calque_1_1_" class="st2">
					<g>
						<g>
							<defs>
								<rect id="SVGID_3_" x="-0.1" width="392" height="392"/>
							</defs>
							<clipPath id="SVGID_4_">
								<use xlink:href="#SVGID_3_"  style="overflow:visible;"/>
							</clipPath>
							<path class="st3" d="M195.9,375.3C97,375.3,16.6,294.9,16.6,196S97,16.7,195.9,16.7S375.2,97.1,375.2,196
								S294.9,375.3,195.9,375.3z M195.9,0C87.8,0-0.1,87.9-0.1,196s87.9,196,196,196s196-87.9,196-196S304.1,0,195.9,0z"/>
						</g>
					</g>
					<g>
						<defs>
							<rect id="SVGID_5_" x="0.1" width="391.9" height="392"/>
						</defs>
						<clipPath id="SVGID_6_">
							<use xlink:href="#SVGID_5_"  style="overflow:visible;"/>
						</clipPath>
						<path class="st4" d="M144.3,256.8L144.3,256.8c-4.2-3.8-4.6-10.4-0.8-14.6L239.1,136c3.8-4.2,10.4-4.6,14.6-0.8l0,0
							c4.2,3.8,4.6,10.4,0.8,14.6L158.9,256C155.1,260.3,148.6,260.6,144.3,256.8z"/>
					</g>
					<g>
						<defs>
							<rect id="SVGID_7_" x="0.1" width="391.9" height="392"/>
						</defs>
						<clipPath id="SVGID_8_">
							<use xlink:href="#SVGID_7_"  style="overflow:visible;"/>
						</clipPath>
						<path class="st5" d="M253.6,256.8L253.6,256.8c4.2-3.8,4.6-10.4,0.8-14.6L158.9,136c-3.8-4.2-10.4-4.6-14.6-0.8l0,0
							c-4.2,3.8-4.6,10.4-0.8,14.6L239.1,256C242.8,260.3,249.3,260.6,253.6,256.8z"/>
					</g>
				</g>
			</g>
		</g>
	</g>
</g>
</svg>
