<?xml version="1.0" encoding="utf-8"?>
<!-- Generator: Adobe Illustrator 20.0.0, SVG Export Plug-In . SVG Version: 6.00 Build 0)  -->
<svg version="1.1" id="Capa_1" xmlns="http://www.w3.org/2000/svg" xmlns:xlink="http://www.w3.org/1999/xlink" x="0px" y="0px"
	 viewBox="0 0 373.1 281.2" style="enable-background:new 0 0 373.1 281.2;" xml:space="preserve">
<title>email</title>
<path d="M0,242.2c0,21.5,18.3,39,40.8,39h291.4c22.5,0,40.9-17.5,40.9-39V39.1c0-21.5-18.3-39.1-40.9-39.1H40.8
	C18.3,0,0,17.6,0,39.1V242.2z M327,29.5l-140.5,119L46.1,29.5L327,29.5z M29.5,56.2l139.2,117.5c8.9,7.3,15.1,12.1,19.2,12.1h0.1
	c3.7,0,8.2-3.9,16.2-11.9l0.3-0.3L343.7,56.2v186c0,5.2-5.2,9.6-11.4,9.6H40.8c-6.2,0-11.4-4.4-11.4-9.6L29.5,56.2z"/>
</svg>
