<?xml version="1.0" encoding="utf-8"?>
<!-- Generator: Adobe Illustrator 20.1.0, SVG Export Plug-In . SVG Version: 6.00 Build 0)  -->
<svg version="1.1" id="Capa_1" xmlns="http://www.w3.org/2000/svg" xmlns:xlink="http://www.w3.org/1999/xlink" x="0px" y="0px"
	 viewBox="0 0 52 96.1" style="enable-background:new 0 0 52 96.1;" xml:space="preserve">
<title>facebook-logo</title>
<path d="M50,0H37.5c-14,0-23.1,9.3-23.1,23.7v10.9H1.9c-1.1,0-2,0.9-2,2v15.8c0,1.1,0.9,2,2,2h12.6v39.8c0,1.1,0.9,2,2,2h16.3
	c1.1,0,2-0.9,2-2V54.3h14.6c1.1,0,2-0.9,2-2V36.5c0-1.1-0.9-2-2-2H34.8v-9.2c0-4.4,1.1-6.7,6.8-6.7H50c1.1,0,2-0.9,2-2V2
	C52,0.9,51.1,0,50,0z"/>
</svg>
