<?xml version="1.0" encoding="utf-8"?>
<!-- Generator: Adobe Illustrator 20.0.0, SVG Export Plug-In . SVG Version: 6.00 Build 0)  -->
<svg version="1.1" id="Layer_1" xmlns="http://www.w3.org/2000/svg" xmlns:xlink="http://www.w3.org/1999/xlink" x="0px" y="0px"
	 viewBox="0 0 551 551" style="enable-background:new 0 0 551 551;" xml:space="preserve">
<title>instagram</title>
<g id="_Groupe_">
	<path id="_Tracé_transparent_" d="M386.9,0H164.2C73.6,0,0,73.6,0,164.2v222.7C0,477.4,73.6,551,164.2,551h222.7
		c90.5,0,164.1-73.6,164.1-164.1V164.2C551,73.6,477.4,0,386.9,0z M495.6,386.9c0,60-48.7,108.7-108.7,108.7H164.2
		c-60,0-108.7-48.7-108.7-108.7c0,0,0,0,0,0V164.2c0-60,48.7-108.7,108.7-108.7c0,0,0,0,0,0h222.7c60,0,108.7,48.7,108.7,108.7
		c0,0,0,0,0,0V386.9z"/>
	<path id="_Tracé_transparent_2" d="M275.5,133C196.9,133,133,196.9,133,275.5S196.9,418,275.5,418S418,354.1,418,275.5
		S354.1,133,275.5,133z M275.5,362.6c-48.1,0-87.1-39-87.1-87.1s39-87.1,87.1-87.1s87.1,39,87.1,87.1v0
		C362.6,323.6,323.6,362.6,275.5,362.6z"/>
	<circle id="_Tracé_" cx="418.3" cy="134.1" r="34.1"/>
</g>
</svg>
