<svg id="Calque_1" data-name="Calque 1" xmlns="http://www.w3.org/2000/svg" viewBox="0 0 515.04 190.49"><defs><style>.cls-1{fill:#241f20;}</style></defs><title>ZenitLogo</title><path class="cls-1" d="M867.38,995.13l.07.54-.14.47.11.54-.07,1.48.18.58-.36.11.18.22.07.33v.69l.11.25-.14.25.07,1.12-.14.29.11.54,0,1.12.07.29-.14.32.14.47-.07.25v2l-.14.51.14.36,0,1.81-.11.33.11.14,0,.25-.22.33.18.58,0,1.19-.07,1.23.18.83.14.25.25-.11h.54l.79.11.54-.14.29.14.29,0,1.08-.18.4.25.29-.25.54.18.32-.11.33.11,1.19-.14.54.11.43.22.33.4.11,1-.07.25-.14.14.22.47-.07.29v.61l-.18.29.14.25,0,.36-.36.4-.11.25-.9.11-1-.07-.83,0-.32.07-.4-.22-.4.18h-2.31l-2.56-.18-.32.22-.65-.07-2.27.07-.87-.22h-.25l-.18-.14-.22-.43-.18-.65v-1.91l.11-.79.11-.18-.18-.51.18-.18-.25-.32.11-.22-.11-.25.25-.11-.25-.29.18-.25-.18-.29,0-.33.18-.87-.14-.61.14-.9-.14-.47.07-.29,0-.83.11-.29-.11-.22,0-.61.11-.25-.18-.18.11-.51-.11-.83.11-.58-.11-.9.18-.4-.07-.29.14-.29-.25-.22.18-.32-.11-.47.11-.47-.11-.32v-.58l-.07-.29.11-.18-.11-1.16.07-1.16.07-.25-.14-.33.18-.33-.18-.36.07-.76-.07-.54.18-.22v-.61l.47-.25.58-.18.32,0,.58.11.22.11.22-.14h.58l.25-.11.18.11.25,0,.9-.07.43.22.11.29.18.07Zm-4.55,1.41.18-.33,0-.22-.22.25Zm0,2.13.18-.18-.11-.14Zm.22,6.54.14.07,0-.14Zm0,10.18.14.22.18-.22Zm0,.94h.14v-.14H863Zm.14-13.32.25-.11.25.11-.11-.54-.22.25Zm.18,9.71v-.18h-.18Zm-.07-1.44h.14l-.07-.22Zm0,1.81.14-.11-.14-.11Zm0,3.47.22-.07.07-.22-.22.07Zm.29-9.6,0-.22-.25-.14.07.22Zm0,8,0-.22-.11-.18-.07.22Zm.18-4.8v-.25l-.14-.14,0,.25Zm-.07-12.31.14-.11-.14-.11Zm0,15.67.07.22.18.11h.29l-.07-.33-.22,0Zm0,1.73h.22l-.22-.14Zm.47-6.75.07-.4H864v.29Zm-.11,2.46h.11l-.07-.18Zm0,.76,0,.18.4-.18-.22-.07Zm0,3.47,0,.29.11.18.32-.4-.11-.22Zm0-14.55.14.07.07-.14-.14,0Zm.07,3.07.4.61,0-.32-.14-.25Zm.07,2.74.14.07.07-.14-.14-.07Zm0,2.27.07.29.18.18.11-.36.18-.29-.07-.22-.18.22Zm.07-10.76.18.07.07-.18Zm.18,11.7-.11-.36-.07.25Zm-.18.43.18.47.18-.25,0-.36Zm0,4.77.36,0,.25-.11-.54-.22Zm.07-.87.25,0,.22-.18-.29-.11Zm.47-9.5-.29,0,.18.11H865l.22-.32h-.33Zm-.07,6.43v-.22h-.22Zm-.14-10.69.22-.11h-.14Zm.22,12.13v-.25l-.22-.22,0,.33Zm-.14-11.66h.14v-.14h-.14Zm0,17.33h.22v-.18h-.14Zm.4-12.06-.11-.22-.22-.11.11.22Zm0,3.61h-.32l.14.25.4-.14.07.22.18.07,0-.25-.4-.47-.11-.29,0,.29Zm-.07,2.24.07-.25h-.25Zm-.11-.9H865v-.14h-.11Zm0-4.4.14.07-.14-.22Zm.07-1.16.18-.18.11-.29-.25.11Zm0,2.82.4-.29.07-.25-.18-.25-.18.54Zm.4,4.51H865l.22.22Zm-.4.69.29.07-.11-.18Zm.47,3.86-.14-.22-.33,0,.18.25Zm-.33-11.19.25.07v-.22Zm0,8.2v.18l.25,0,.14.11-.14.29.25-.11.14-.18-.32-.4-.25-.11Zm.14,1.34.14.14.25,0,.11-.25.36-.4-.54.14-.18.14Zm0-12.6h.14l.07-.22h-.14Zm.07,13.61.47-.51v-.25l-.11.25-.43.33Zm0-5.27h.14v-.14h-.14Zm.07,5.6.29.07-.14-.22Zm.22-18.88h.11l-.18-.07Zm-.07,15.27.18.07.22-.07v-.18l-.25,0Zm.33-3.61-.25-.18.07.22Zm-.18,4.4h.11v-.11h-.11Zm.11-6.61.11.22.22.07-.07-.29Zm.47,2-.11-.33L866,1009l.18.25Zm-.25-3.21h.33l.14-.25-.29.07Zm.07,4.87h.11l-.18-.07Zm0,5.42.33,0-.11-.25v-.22l-.22-.11,0,.22Zm0-2.2.18.18v-.25Zm.33,4.19.18.07-.11-.22Zm.32-1.88.25-.18.07-.33L867,1016l-.14.33Zm.25-10.18h.14v-.14h-.14Zm.22,9.71.14.07.07-.14-.14,0Zm.14,1.08.25,0,.14.18-.07.33.32-.4-.25-.29h-.29Zm.07-.79.32.11-.11-.25Zm.72.07h.14v-.14h-.14Zm.25.9.33.07-.18-.33Zm.61-.9.07-.22-.14-.14-.07.22Zm0,.4.25-.29-.18-.07Zm.94-1.26.18,0-.11-.18Zm.32,1.77-.22.07.14.11Zm.61-.11.14-.11-.14-.11Zm1.37.07-.65-.07.14.18h.29Zm-.51-1H872l-.18-.14Zm2.13.4-.29-.07.11.18Z" transform="translate(-735.94 -829.49)"/><path class="cls-1" d="M886.33,1016.33l-.18-.33v-1.88l.14-.54-.14-.5v-1l.14-.22-.14-1.37.14-.29-.14-.25,0-.33.18-.87-.14-.22-.07-.54.4-.07-.22-.22-.11-.36.07-.54-.07-2.53,0-.54.14-.47-.14-.54v-1.81l-.11-.79.22-.51-.11-.29v-.94l-.11-.25.33-.72-.18-.29.11-.94.22,0v-.36l.4-.36.14-.29.47-.18.11-.22.4.14.29-.36.33-.07h.58l1.16.14.83-.11.25,0,.25.14.25-.14h.69l.54-.11,1.19.11h2.35l.76-.11.61.11.33-.11,1.23.11h.79l.65.54.4.14.22.18.47.79v.22l.22.54v.29l-.11.25.22.51-.07.22,0,1-.14.22.18.47.07.94-.14.54.07.25v.65l-.18.61.18.54v.33l-.18.54.18.33-.14.54.11.29.07.61-.07,1.19.11.58-.11,1.12.07,2.2-.11,1.48.14.33-.11.65.11.22-.22.54.22.32,0,.25-.11.14.11.22-.11.79.11,1.23-.11.65-.87,1.23-.32.14-.22.25-1.23.22-.9.07-.25-.22-.18.11-.29-.11-.32.22-.58-.07-2.89.07-.32-.14-1.66.14-.58,0-.51-.11-.32.11h-.33l-.22-.18-.51.18-.9-.11-.47.14-.29-.14-.36-.07-.14-.25-.54-.22-.54-.58-.4-1-.18-.83.11-.18Zm.76-6.53h.11v-.14h-.11Zm.18-6.14.14.07-.14-.18Zm.29-5.31h.11l-.18-.07Zm0,2.71h-.11l.11.14Zm0-.58h.14v-.14h-.14Zm0,8.27h.14v-.14h-.14Zm.07-.69.25-.11,0-.22-.22-.14,0,.25Zm.22,4.8,0-.36-.11-.25-.07.25,0,.25Zm-.22,1.8h.25l.11-.14h-.36Zm0,2h.14l-.14-.18Zm.4-13.32-.07-.25-.25-.07.11.22Zm.07-2.92v-.47H888l0,.29Zm-.18,5.27.61.11.25-.07-.25-.18-.4,0Zm0,9.53h.11v-.14H888ZM888,1007l.18.29.22-.22-.22-.11Zm0,2.09.36-.07-.11-.22-.25-.07Zm0,3.07.22-.07.07-.22-.22-.07Zm.14,5.7.07-.25-.18.11Zm-.07-19.24.14.07.07-.14-.14-.07Zm0,6,.14.07.07-.14-.14-.07Zm0,12.78.14-.07-.14-.11Zm.69-15.78-.36-.4.11.33Zm-.36,8.2.29.07-.22-.29Zm.14,3.61.07-.22-.14-.14-.07.22Zm.54,3.18-.69-.11.14.22.32,0Zm-.47-5.6.25-.54-.32,0-.11.36Zm-.07-6.39.22.18,0-.25Zm0,10.72.14.07.07-.14-.14-.07Zm.32-7.11-.18,0,.11.14Zm-.07,6.07H889v-.14h-.14Zm.22,1.84.07-.22-.22-.11,0,.22Zm-.14-13,.14.07.07-.14-.14,0Zm.07-2.06h.14l-.14-.18Zm0,7.8.11.33.29.14-.11-.25v-.29Zm0,1.34h.07l.07-.14H889Zm.47,5.05-.18.36-.22-.14-.07.07.33.32.07-.25.47-.14-.11-.25Zm-.4,2.42h.14v-.14h-.14Zm.25-16.61.25,0,.11-.14-.29-.07-.18-.22,0,.22Zm-.11.61h.11l0-.22Zm0,3.93.32.11-.11-.25Zm0,2.13.25.11.07-.25Zm0,4.8.25,0v-.11l-.14-.07Zm.07-1.95.25-.33h-.29ZM889.4,998l.29-.18-.22-.14h-.18Zm-.11,5.09h.32l-.22-.11Zm0,2h.14l-.18-.07Zm.14,8.2v-.18l-.18-.14Zm-.14-8.74.18-.11-.11-.14Zm.07,2,.11.18-.14.22.11.18.29-.65-.25,0Zm0,8.52.22.07.18-.54-.18-.07-.11.29Zm.07-15.45.22.11.11-.25-.11-.14Zm.14,16.79h.18l0-.29-.14-.18-.11.25Zm0-14.55h.18l-.18-.11Zm.07-.33h.11v-.14h-.11Zm0,3.68.22,0-.11-.18Zm0,5.7.32.14.11-.33-.11-.22-.14.22Zm.11,2.56.11-.22-.11-.14-.11.18Zm0-6.28.32-.14-.14-.25-.11.22Zm0-2.78.14,0-.14-.18Zm.22,1.52.33-.14-.25-.11Zm.07,1.48h.25v-.14l-.14-.07Zm.51,7.83-.51-.11.11.22.25.11Zm-.51,2.56.07.18h.33l.18-.18-.29-.07Zm.07-7.55.25,0,.07-.18Zm0-9.06.11.18.25,0-.14-.22Zm0,6.79.14-.07-.14-.11Zm0,8.81.11.29.29,0,.14-.58-.18-.07-.07.33Zm.14-16.72.14,0-.07-.18Zm.22,14.26v-.25l-.14-.11-.07.25Zm-.14-14.62.18-.11h-.11Zm.25-.5.36.11v-.4l-.22.11Zm0,18.3h.14l-.07-.18Zm.22-2v.4l.4-.43-.14-.25Zm.32-18.49.07-.25-.18.11Zm-.07,21h.14v-.14h-.14Zm.07-1.48h.22l-.22-.11Zm.22-.25.18-.47-.07-.14h-.25l0,.36Zm.18.33.14.07.07-.14-.14,0Zm0,1.95h.29l-.14-.18ZM895,999.54l-1.77,0-.76-.11-.51.4-.14.25.07.76-.14.33.14.33-.14.33.11.22,0,.33-.14.33,0,.33.14.29-.11.79-.14.22.22.47-.14.54.07,1.19,0,.54-.11.25.14.18.07.29-.07.29,0,.54-.11.36.11.54-.11,1.16,0,.58.11.33-.22.61.14.14,0,.9.11.22-.11.33,0,.51.14.22.43.29.54-.14.54.18,2.42-.11.51.07.22-.18.14-.25.11-.65-.07-.87.22-.33-.22-.32v-.83l.14-.25-.11-.54v-1.26l.11-.54-.11-1v-2.42l-.11-.87.22-.32-.11-.47v-.87l.11-.25-.18-.54,0-.32.36-.54-.25,0-.11-.14.07-.29V1000l-.14-.22-.22-.14-.79-.14-.33,0Zm-3.32,16.79H892l-.07-.25-.25-.07Zm.22,1.8.18,0,.22-.11-.22-.18Zm0-2.92h.14v-.14h-.14Zm.83,2.6-.29-.22.07.25Zm-.22-.61.51.18.14-.18h-.25l-.32-.32Zm.07-.61h.14v-.11h-.14Zm.32-.11v.11l.22.07,0-.18-.18-.07Zm.07.47.4.25-.07-.22.07-.25-.25,0Zm.79-18.2,0-.22-.14-.14,0,.29Zm.22,18.7v-.25h.25l-.14-.18-.22.11-.11.18Zm-.07-21h.11l0-.22Zm.18,20.11.22-.11h-.14Zm.22-.33.14.18.25.11-.11-.29Zm.25,1.34.18.18.14-.25Zm1.16-1.26v-.22l-.22-.11,0,.22Zm.25,1.26v-.25l-.32-.07.11.18Zm.07-18.92.32-.07-.25-.14Zm0,17,.18,0-.11-.18Zm.25.5h.14v-.11h-.14Zm0,1.66h.14v-.11h-.14Zm.14-1,.22,0,.11.22h.32l-.18-.4-.32,0Zm.18-1.08.14.07-.07-.18Zm.14-17,.22,0v-.22Zm.32,18.77v-.18l-.18-.14Zm.54-19.86,0-.25-.25-.11-.11-.25h-.22l.11.29.18.18Zm-.4-.94h.14v-.11h-.14Zm.47,1.73-.07-.33-.14-.25h-.25l.29.43Zm-.22,18.66v-.54l-.22.14v.25Zm.07.69-.25-.22v.29Zm-.18-2.13.25.18,0-.22Zm.07-14.08.18-.18-.14-.22Zm0,17.33.47-.14-.07-.18-.22-.07,0,.25Zm0-18.41h.22v-.18h-.14Zm.29,2.56.18-.14-.18-.14Zm.07,3.93H898v-.14h-.11Zm0,9.53.11-.07v-.07h-.11Zm0,.4,0,.25.14.14,0-.29.11-.18Zm.79-18.34-.22-.14-.51-.07.11.36.18-.14.58.18.25-.32-.07-.25-.22.18Zm-.69,2.27.4-.07-.07-.22-.25-.07Zm.22,15,.14.07,0-.14Zm.07-8.59h.11v-.14h-.11Zm.4,7.94-.07-.22-.22-.14.14.22Zm-.22-15.74.22.25.33-.5-.25,0Zm0,1.19.29.07-.11-.18Zm.47,1-.14.25.22.22.07-.25,0-.25.11-.18-.18-.14-.51-.11.22.25Zm-.4-4,.29.07.07-.29.18-.18-.36.11Zm.07,16.68.14-.11-.14-.11Zm.32-10.22.14.29.18.18.43-.14-.47,0-.29-.54-.25-.14v.25Zm-.07,11.8v-.14l-.18,0Zm-.11-9h.11v-.14h-.11Zm.11-11.34v.14l.22,0,.07-.18-.22-.07Zm.07,4.19.54.07-.07-.22h-.29Zm0,8.67.14.07.07-.14-.14-.07Zm0,8.27h.14v-.14h-.14Zm.14-16.32.18.22.25-.11.11-.25-.22-.18v.33Zm.07,14.4h.18l-.18-.14Zm.25-16.75-.18.07.11.11Zm-.07,9h.14l-.22,0Zm-.07,10.36.11.11h.25l-.14-.18Zm.29-19.93-.18.18,0,.25.22,0Zm.07,4.37-.07-.25-.14-.14,0,.29Zm.11-3.57-.22.07-.11.18.47-.14.14-.47-.4,0Zm-.25.72h.14v-.14h-.14Zm.22,8.67h.11v-.14h-.11Zm0-8.41.29.07v-.18Zm0,11.55h.22v-.22Zm.07-10.54.25-.11.07-.29-.32.11Zm0,3.47v.14l.22.07.07-.07v-.14l-.22-.07Zm.07,3.32.14-.25-.22-.07Zm.14-4.73.14-.22-.07-.18-.22.22Zm-.07,3.39.25.22.29-.22-.32-.07Zm.14,3h.11v-.14h-.11Zm.11-9.75.14.07.07-.14-.14-.07Zm0,3.72.25.07.18.14.18-.14-.25-.11-.14-.22.14-.33-.22.07-.07.29Zm0,4.87.22-.14v-.18Zm.36-10.25-.29-.22.07.22Zm-.29,3.86h.14v-.14h-.14Zm0,15.78h.14v-.11h-.14Zm.07-16.71.22-.25-.22-.07Zm0,1.48h.32l.22-.22-.4-.14Zm0,15.85h.14v-.14h-.14Zm.22-16.64.25.18v-.29Zm0,5.31.07.25.25.07v-.25l-.22-.14Zm0-2.71.25-.07.14-.29-.25,0Zm.29,1.66-.11-.25-.18-.14.07.25Zm-.22.72.14.07.07-.14-.14-.07Zm0,12.27h.14v-.14h-.14Zm.07-17.69h.14v-.11h-.14Zm.07-3,.22-.11-.07-.14Zm.07,9.82.14-.11-.14-.11Zm.25-8.27h.14l-.07-.22Zm.33,6.39-.18.07.11.11Zm-.11-2.38h.11v-.14h-.11Z" transform="translate(-735.94 -829.49)"/><path class="cls-1" d="M916.19,994.74l.54-.18H918l.29-.07.29.18.32-.07.54.07.69.4.32.43.51,1.08.14.54.18.22.25.58,0,.29.32.4.29.79.32.4.11.58.14.18v.58l.4.33.25.5.11.83.25.14,0,.29.51,1v.25l.32.36,0,.29.4.76-.11.33.4.07v.29l.29.54v.36l.25.18.29.58,0,.25.18-.22,0-1.19.14-.4-.14-1.19.14-.4-.14-1.16.11-.54-.11-.76.14-.54-.07-.69.18-.33-.18-.22v-1.19l-.07-.25.11-1.26,0-.87.18-.32-.11-.22,0-.58-.11-.54.36-.54,0-.33H927l.11-.22.29.11.51-.22.29.07,1.37,0,.29.14.54,0,.58-.14.69.4.4.4v2.53l-.07.25.07,1.19,0,.54-.11.22.14.25,0,.29.07.32h-.25l0,.29.22.25-.11.5.07.25-.07,1,.07.25-.07.47.07,2.35-.07,1.37.11.36-.07.29.07.29-.25.25.25.47-.07.25.07,1.16-.11.87.11.69-.11.61.11,2.17-.18.54.18.4-.11.87.11.87-.18.33.11.25,0,.47-.07.61-.47.25-1.12.29-.25,0-.18-.11-.61.11H927.2l-.33-.25-.29.14-.72-.72-.07-.47-.18-.22-.69-1.62-.25-.43,0-.33-.22-.22-.11-.29-.18-.22.07-.36-.33-.43-.25-.58-.11-.65-.32-.4-.51-1-.18-.83-.11-.22-.22-.18v-.36l-.47-.72v-.29l-.32-.4v-.36l-.43-.65-.11-.61-.22-.22-.36-.83-.36,1-.11.65.11.61-.11.36.07.25v2.42l-.14.51.11.25,0,.54.11.29,0,.54-.07.54.07,1.19-.22.5.25.47-.11,1.08.07,1.41-.07.29-.29.22v.33l-1.19.22-2-.07-.32.14h-.29l-.25-.22-.29.14-.18-.11-.36,0-.22-.18-.18-.54-.07-.61-.11-.32h.33l-.14-.22-.11-.54.07-1.23,0-.61.07-.22.22-.11-.14-.11-.18.11.07-.58.11-.22-.11-.25v-1.19l-.07-.36.25-.22-.25-.33.18-.4-.18-.33,0-.61.11-.69.11-.25-.14-.25v-.65l.14-.29-.14-.61,0-.65.11-.18-.07-.29.22-.14-.25-.32.11-.25-.11-.69.07-2.38-.07-1.12.25-.43-.25-.11.07-1.23.11-.25-.18-.32.07-.33,0-.65.14-.22-.11-.22,0-.29.07-.51-.11-.25.18-1.41-.11-.47.11-.22.32.07.07-.33.33,0,.54-.18H916Zm-1,7.65.18.07-.14-.18Zm.18-.79h.14v-.14h-.14Zm.07,13.47.14.07.07-.14-.14-.07Zm0,.33.22.07,0,0Zm.25-7.26h.14V1008h-.14Zm.36,7.26-.36-.07v.11l.18.11Zm-.29-13.11h.14v-.14h-.14Zm0,5.31h.14v-.11h-.14Zm.07,6.35H916l.14-.22-.22,0Zm.33-5.13v-.29l-.18-.18-.07.29Zm-.18,8.92.33-.33-.22-.07-.18.18Zm0-3.39.33.18.07-.25-.07-.25-.25.07Zm.07-.94.25,0,.14-.22-.22-.07-.11.14Zm.33,2.6-.07-.18-.22-.07Zm-.22-15.74.14-.07-.14-.11Zm.07,6.82.29,0,.14-.33-.14-.25-.07.33Zm.07-1.48h.14v-.14h-.14Zm.54,5.45-.29,0-.18.25h.22l.18-.14.25-.07.22.47h.18l-.11-.72-.22-.14-.07.07Zm0,.87-.4-.18.18.25Zm-.22,3.39-.18.14.11,0Zm-.11.83h.11V1016h-.11Zm0-2.82.14-.07-.14-.11Zm.29,3.61v-.18l-.22-.14,0,.22Zm-.14-7.22.18.29.22.18.43-.36.29-.11-.11-.22-.29,0-.07.33-.25.07v-.4l-.25-.07Zm.07-12.71H917l-.11-.14h-.14Zm0,17.65.47.22.07-.36-.4-.11Zm.14-14.95.07-.22-.14-.11Zm.58,6.54,0-.25-.18-.18-.51-.29.18.29.25.18Zm-.65,7.76h.11v-.14h-.11Zm.07-5.81H917v-.14h-.11Zm0,6v.14l0-.22Zm0-14h.14V1000h-.14Zm.22.58.14-.33-.22-.07-.07.25Zm-.14,5.88h.14v-.14H917Zm0,9.06.18-.11-.11-.18Zm0,1.19h.22l-.22-.14Zm.14.72h.14v-.11h-.14Zm.47-13-.32-.07.14.29Zm-.32,3.94h.11l0-.18Zm0,4.15.25.14.18.22.29.14-.14-.29-.58-.76Zm.11-4.8h.14l.07-.22h-.14Zm.29,2.85.07-.25-.22.11Zm0-3.32.11-.25-.18-.22,0,.25Zm-.07,4.8.29-.07.11-.22-.29.07Zm.07-3,.18-.11.07-.25-.18,0Zm0,1.91.25,0,.07-.14ZM918,1015h-.33l.07.25.32,0,.14-.22-.43-.25Zm-.25-10.65h.18l-.07-.22Zm0,12.78.18-.14-.14-.18Zm0-13.39.36-.07-.14-.25Zm.43,2.6-.14-.18-.22.07Zm-.36,3.36.11.14.25,0,0-.33-.18.07Zm0,.79.32,0,.14-.25-.18-.11-.18.14Zm0,3.25.11.22.18.11,0-.29.22-.29-.25.11Zm.07-14h.14v-.11h-.14Zm0,2.6h.14v-.11h-.14Zm0,4.48.18,0-.11,0Zm.14-8.2h.25l.11-.22,0-.25-.22.18Zm.47,5.81-.4-.29.14.29Zm-.4,2.71.07.47.22-.07h.36l-.25-.4-.22-.11Zm.33-4.58,0-.25-.22-.07v.25Zm-.25,10.65.29-.07.11-.25-.33.07Zm0,2.74.36,0,.18-.14-.29-.07Zm.07-12.38.29.07v-.36l-.25,0Zm.33,5.31-.25-.25,0,.22Zm-.18-2.38.25-.22-.18-.25-.07.18Zm0,5.38.22.07.11-.18Zm0,.61h.18l-.18-.18Zm.07-4.4.32-.07-.25-.18Zm.07-3.18.18,0-.14-.18Zm0,4.58h.22l-.22-.25Zm.07-6.32.36.18-.14-.29Zm0,6.79.25-.07,0-.25-.22.07Zm0,4.26.22-.14.14-.25-.22-.07-.07.25Zm.4-11.59.14.07.07-.14-.14-.07Zm.29-2.92h.11l.07-.14-.18-.07Zm.07,4.12.51-.07-.11-.25-.29.07Zm.25,1.48,0-.22-.18-.14,0,.18Zm.32-4.95h.14l.07-.14-.22,0Zm.32,1.8v-.22h-.18Zm.29.07.25-.32h-.18Zm.18-3.36H921v-.11h-.14Zm.07,8.09h.22l-.22-.14Zm.14-4.48h.14v-.14h-.14Zm.72,1.55.29-.14-.29-.07Zm.07,2,.25-.22-.18,0Zm.61,1.48v.11l.18.07.07-.18-.18-.07Zm.47.25h.11v-.14h-.11Zm.33-.14.25,0,.07-.22-.22.07Zm.47,3.07.4.14v-.4l-.29.07Zm.32,1.55h.29l.18-.25-.14-.22-.11.29Zm.22-.47v-.33l-.14.18Zm0-2.42h.14v-.11h-.14Zm.07-1.66h.14v-.14h-.14Zm0,1,.29-.14h-.29Zm.07,2.53.29-.07.14-.14,0-.25-.25.18Zm.54.54.07.14v.25l.47-.33-.4-.36Zm0,1.19.33.07.07-.29-.25,0Zm.14-1.52h.11v-.14h-.11Zm.4-1.23V1010l-.22-.07Zm.18,2.2h.22l-.22-.11Zm.33,2.13,0-.22-.22-.18.07.25Zm0-2.24.11.22.25,0,.14-.22-.22-.11Zm.11,3.72.14.07.07-.14-.14-.07Zm.14-4.95.25-.14.14-.25-.47-.11.07.22Zm0,3.21h.14v-.14h-.14Zm.18,1.52h.32l.22.11-.07-.32-.25-.18-.33-.07v.22Zm0-4.37,0,.29.22.14,0-.36-.11-.22Zm.18,1.91.14-.25-.18.07Zm.4.14h-.18l-.22.47.11.25.22.22.25-.9.22-.18v.47l.22-.14.11-.29-.11-.58-.4.47Zm-.4,3,.4.14v-.36l-.18-.18-.11.18Zm.07-6.75.18-.07.07-.25-.18-.07Zm.25,3.43h.14l-.18-.07Zm0-2.89.22,0,.14-.14-.25,0Zm.14-12.46h.14l.07-.22h-.22Zm.25,18.2h.22l-.22-.22Zm.07-4.66h.22l-.22-.14Zm.22.65-.14-.33-.07.22Zm0-2.92,0-.29.25-.11.18-.22h-.47l-.11.22v.25Zm-.07,1.19.22-.14H928l.33-.4-.76.32Zm.07-7.4.18-.07-.18-.11Zm0,1.62.25.11-.18-.25Zm.07-.43.11.07v-.18h-.11Zm0,10.14h.11l.07-.18h-.11Zm.07,1.12.25-.11-.22-.22Zm0-.87h.14l.07-.18h-.14Zm.07-2.24H928v-.14h-.14Zm.07,1,.22-.11-.11-.25-.18-.18,0,.29Zm.14,2.92.07-.14,0-.29-.18-.14,0,.36Zm-.07-11.77v.11l.07-.18Zm0,9.78.14.33.22-.18v-.22l-.22-.18Zm.61-11.88-.22-.18-.33-.07.18.29Zm-.54.69.18.07-.11-.22Zm0,8,.18.07-.11-.18Zm.07.76.4.11-.22-.51-.14.11Zm0,5.45.25.11.18.18v-.61l-.25.07-.22-.14Zm.07-8.12.29.18.25-.43-.29.07Zm.22,4.4,0-.22-.18-.11-.07.22Zm-.07-13.79.14,0-.07-.18Zm0,5.6.22-.29-.22.11Zm0,4.8.22.11.11-.32Zm0,2,.4.07-.18-.22Zm.07-7.4h.33l-.18-.25Zm0,6.46.47.22-.11-.29-.29-.18Zm.14-11.81.11-.14-.07-.18Zm0,14.87.36-.07-.36-.4,0,.25Zm.07-3.79.29-.14-.22,0Zm.07,3.18.11-.22-.11-.18-.07.25Zm-.07,1.63.14.07.07-.14-.14-.07Zm.07-13.75.25-.18h-.25Zm.07,15.2v.14l.18.07.07-.22-.18,0Zm.07-14.59.25-.14-.25,0Zm0,11.59.32.22-.07-.22-.18-.11Zm.18,3.86.22-.14-.07-.18Zm.22-10.33.14-.47-.29.22Zm-.07-3.72.11.18.22,0-.11-.22Zm.07.47.14.07,0-.14Zm.14-.79.43.18-.22-.25Zm0,13.18.18,0,.11-.18Zm.07-12.27.25.11.07.32.22-.11.14-.18.07-.25h-.58Zm0,6.43.29.07-.11-.22Zm.29,5.27,0-.25-.07-.22-.18-.14v.4Zm-.14-2.17h.14v-.11h-.14Zm.25-15.7.14.07.07-.14-.14-.07Zm0,17.51.29-.11-.07-.29-.07.22Zm0,2,.29-.14-.22,0Zm.14-11.48h.14v-.14h-.14Zm.22-1,.18-.18-.14-.18Zm.25-.87.18-.11,0-.18Zm0,12.06h.14v-.14h-.14Zm.14-12.67v.14l0-.22Zm.11,7.73H931V1011h-.14Zm.07-12.92.14.07.07-.14-.14-.07Z" transform="translate(-735.94 -829.49)"/><path class="cls-1" d="M952.51,994.7l.54-.14.87-.07,1.19.14.25-.11,1.41,0,1.08.36.47.33.25.54.4.25,0,.29.29.76-.14.54.14.54-.07,1.19,0,.54.11.22-.29.76,0,.22-.54.61-.22-.07-.33.33-.25,0-.14.14-.47.25-1,.4-.18-.07-.14.25-.61.11-.9.36H954l-.25-.4-.14-.51-.07-1.23.11-.87-.11-.33-.4-.4-.58,0-.54-.11h-.51l-.29.07-.54,0-.25-.11-.94.5-.14.18.14.25-.14.14,0,.25.18.54-.11.22.11.58-.22.25.22.61v.32l-.14.29.07.61-.14.58.18.54-.07,1.8.11.79-.22.43.11.58v.54l.11.51-.22.32.14.54-.07.54-.14.18.29.07-.07.54v2.24l.14.18.25.11.61.07.25.11.25-.11.29.07,1.84-.11.54.14.22-.14.14-.22.25-.11-.07-.47.07-1.8-.11-.94-.11-.29-.58-.11-1.12-.07-.22-.11-.25.11h-.25l-.51-.22,0-.33.54-1.73,0-.29.33-.36.22-.11-.14-.33.32-.79.76-.72.25-.14H958l1.19,0,.32.4.18.5v.87l-.11.25.14.43v.29l-.14.14.14.25-.14.29.07.22-.18.18.25.33-.11.25.07.76-.14.25.07.29,0,1.34.07.33-.14.25.11.54v2.78l-.14.29.11.25-.11.58,0,.29-.33.14.07.33-.79.76-.72.43-.51-.07-.25.07-.18.14h-4.62l-1.19-.14-.61.11-.58-.11-.25.14-.25,0-.18-.11-.22.11-.29,0-.58-.07-.43-.22-.32.29-.54-.07-.25.07-.36-.22-.36,0-.29-.07-1-.61-.07-.29-.4-.33v-.29l-.11-.25,0-.25-.18-.25,0-.65-.07-.61,0-.29.18-.25-.18-.33,0-.58-.11-.25.22-.33-.18-1.84.18-1.16-.14-.25.07-1.37.11-.18-.14-.22v-.29l-.11-.29.11-.54v-1.16l.11-.5-.18-.58,0-.25.14-.22-.11-.25-.11-.76.11-.5-.07-1.23.07-.83.11-.25-.14-1.08v-1.95H944l-.22-1.12.11-.5.25-.47v-.4l.61-.61.11-.25.22.14.14-.22.79-.4.33,0,.61.11.11-.14.22.22.4-.22.25.14.29,0,.18-.14.47.07h1.84l.51.11.58-.14.54.07Zm-8,12.13-.25-.07.11.18Zm1.16,1.52-.14-.14-.22,0Zm-.29-3.65h.33l-.18-.14h-.14Zm.07,9.13h.14v-.14h-.14Zm.14-14.15.14-.47-.14-.18-.11.33Zm-.07,7.29.14.07,0-.14Zm.07-.79h.11V1006h-.11Zm0,6.71.11.14.43-.22-.29-.07Zm.11-1.88v.14l.07.07h.14l.07-.22-.22-.07Zm0,3.21h.14v-.14h-.14Zm.14-15.67.14.07-.14-.22Zm0,16.46.25-.07.14-.18-.29,0Zm.22-16.79v-.14l-.18,0Zm.11,10,0-.54-.14-.22-.07.29,0,.25Zm-.25,1,.14.29.33.11.11-.22,0-.36-.36,0Zm0,6.86.14.07L946,1016Zm.14-3.9h.18l-.18-.14Zm.07-5,.33-.18-.33-.14Zm0,2,.14.22-.14-.07Zm.07-4.66.22.29,0-.29-.11-.11Zm.07,2.92h.14l.07-.18h-.14Zm0,8.09h.22l-.14-.29Zm.32-15.67-.18.07.11.11Zm-.11-3.25.33-.22-.22-.22-.07.18Zm0,8.92.4.18-.22-.43Zm0,3.25h.11l-.07-.18Zm0,2.49.14.07.07-.14-.14-.07Zm.07-1.08h.14v-.14h-.14Zm0,2.92.14.18.22.11.25-.43.4-.36-.54.11v.36l-.22,0Zm.22,2.67.32-.11h-.32Zm.14-18.27.18.07-.14-.18Zm.18,11.66-.07.22.25-.14.14-.25H947Zm0,1,.07-.25H947Zm.33,7.55-.33-.14.14.18Zm-.25-6.21.22-.07.11-.18-.25,0Zm.07-12.38h.11V999h-.11Zm.07-2.35.18-.14h-.14Zm.25,9.93-.25-.25,0,.22Zm-.25,3.79.22-.11.11-.29-.14-.18-.14.32Zm.32-11.84v-.54l-.18.11v.29Zm-.14-.69.32,0,0-.22Zm.07,6.75.14.07.07-.14-.14-.07Zm0,1.12.14.07.07-.14-.14-.07Zm0,5.92.18-.14-.18-.18Zm.07-2.06h.14v-.11h-.14Zm.07,4.95.18,0,.14-.18-.22,0Zm.33,3.25-.25-.07.11.22Zm-.07-20.4h.14v-.11H948Zm0,17.4h.22l-.22-.11Zm.14.94.47-.25v.25l.18.07-.18-.54-.43.18Zm0,1,.14,0-.07,0Zm.07-7.69h.11v-.11h-.11Zm0-.33h.14v-.11h-.14Zm.22,8.09h.14v-.14h-.14Zm.07-19.53.22-.07.11-.22-.22.11Zm1,18.52.29-.07-.29-.07Zm.36-16.79h.11V999H950Zm0,19.46.25.11.07-.25-.18-.11Zm.18-20.61.07-.22-.14-.11Zm.4-1h.14v-.14h-.14Zm.07,18.85.22.07-.14-.22Zm.14-19.53.29.11.25-.11-.32-.11Zm.25,20.87-.25-.14.07.25Zm.47-19.39.14.07.07-.14-.14-.07Zm.25,18.52.07-.25-.18.11Zm.22.47v-.22h-.22Zm.79-18.92h-.47l.25.14Zm.61,19.57,0-.18-.18-.14-.07.22ZM954,999l.25-.11-.11-.22Zm1.16,17.65,0-.25-.25-.07,0,.25Zm.94.94h-.29l-.18-.22-.29-.11.36.47.25.07Zm-.47-1.48,0,.25-.11.18.32-.07V1016Zm.18-3.1.14.07-.14-.22Zm.4,2.38v-.25l-.25-.14,0,.29Zm-.07-15.85.22-.14-.22-.18Zm.07,17.4h.25l.11-.14h-.36Zm.61-.29-.14-.18h-.33l.18.22Zm-.25-1.26h.11v-.14h-.11Zm.58-17.73-.32-.07.14.22Zm-.32,14.08H957l-.18-.14Zm.14,5.23.25-.18-.25-.07Zm.25.83,0-.22-.25-.14v.22Zm.25-2.35v.25l.25-.07.11-.25Zm.14,1.88h.14v-.14h-.14Zm.22-7.33.25-.22-.18,0Zm0,6.64.07.25.22.07.14-.25-.22-.11Zm.54-2.31.22,0-.14-.18Z" transform="translate(-735.94 -829.49)"/><path class="cls-1" d="M980.1,994.77l.32-.25.79-.07.79.14.61-.07,1.23.11.25-.11.72.18.25,0,.43.25.25.07,1,1.44-.11.29.25.58,0,1.81-.14.79.11.22,0,.29-.14.83,0,.29.14.25-.07.29.07.33-.14.18.14.33-.11,1.16-.22.94-.32.25-.29.61-.25.11-.87,1.08.4.47.69.58.33.54.25-.07.87,1.26.22,1.73-.07.87.11.51-.07,1.95.07.29-.14.54v.29l.14.58-.11.47.11.25-.72,1.55-.4.4-.25.11-.43.33-.58.14h-2.53l-.47.14-.58-.11h-1.84l-.87-.11-.25.14-.18-.11-.94.11-1.3-.11-.25.11-.33-.14-.58.11-1.19,0-.83-.18-.29.11-.58,0-.29-.07-.43-.33-.36-.5.07-.61V1017l.14-.61-.18-.94.07-.58.11-.29-.25-.4.11-.18,0-.87.11-.22-.14-.61.14-1.16-.07-.29.22-.18-.29-.29.07-.47v-4l.22-.18-.29-.32.07-.33v-.61l.14-.22-.18-.54.07-.61.18-.18-.22-.33.07-2.46.07-.54-.22-.65.22-.36-.18-1.19v-2.06l.51-.69.29.07.18-.18.25.11.58-.14,1.19,0,.65.11,1.08-.14,1.23,0,.47.11.14-.11.25.07.83-.07.25.11.54-.14.22.07Zm-7.87,9.53.33.14v-.22l-.18-.18Zm.33,4.26.14.07.07-.14-.14,0Zm0,3h.14v-.11h-.14Zm0,.14v.14l.07-.22Zm.14-7.33H973l-.18-.25Zm.07,2.06H973l-.11-.25Zm.18,4.66V1011h-.18Zm.14,5.49h-.33l.14.18Zm.14-8.52.11-.22.18-.14.11-.25-.33.07-.47.4.18.07Zm-.33,1.26.18,0-.14-.18Zm0-3.61h.14v-.14H973Zm0,10,.43.47v-.61l-.22-.18Zm.07-1.26.47.18-.11-.25-.22-.11Zm.14-4.26.11-.25-.11-.14-.11.22Zm-.07-7.29h.14l.07-.18h-.14Zm.25,2.6,0-.22-.22-.18,0,.29Zm-.18-1.44.07.58.58,0-.18-.18v-.25l-.25-.11Zm0,2.2h.14v-.14h-.14Zm0,10.9h.14V1017h-.14Zm.07-3.1h.29l-.11-.25Zm0,3.79.14.18.11-.25Zm.18-8.12.14-.29h-.25Zm.29,2.92-.14-.54-.25-.07.14.54Zm.11-3.47-.18-.33h-.29l.18.22Zm-.47,5.74.14,0,.29-.18.22,0,.11-.18-.4-.07-.14.22Zm.43-1.48,0-.29-.25-.18,0,.33Zm-.29-1.88h.14v-.11h-.14Zm.07-6.1.22.11.07-.22-.14-.18Zm0,.33.4.18.22-.33h-.32Zm.07,5.38.4.14-.18-.22Zm.14,5.13,0-.25-.18.11Zm-.07-9.1.18-.11-.11-.18Zm.11.58.18-.18-.22-.22,0,.18Zm.14,8.12v-.18l-.18-.22v.22Zm-.18.83.14-.14-.11-.14Zm.32-12.56-.07.29-.14.14.54.18-.07-.33.29-.11.11-.29-.29.14Zm.07,8.63.18-.18v-.36l-.18-.07h-.29l.33.32Zm0,.65-.25-.07.11.22Zm.14-4.59-.14-.18-.18,0Zm-.33.79h.14v-.14H974Zm.18-2.82.22.07-.14-.18Zm0,3.83h.14v-.14h-.14Zm0,.4v.11l.07-.18Zm.07-3.83.25.11.14-.11-.25-.11Zm.07,6.82.4.18-.14-.29Zm.32-12-.25-.11.11.22Zm-.25,4.26h.14v-.11h-.14Zm.25,10.29.33-.07.54.07.22-.29-.32-.07-.14-.25-.25.14-.29-.54-.25-.14.25.54,0,.29Zm0-18.2h.11l-.07-.22Zm0,.65.22-.25-.25.07Zm0,1.66h.14l-.18-.07Zm.14,12.89.29,0,.18.14h.22l-.18-.25-.25-.14-.07-.25-.14-.18-.22-.11.07.33.18.14Zm-.07-16.35h.14v-.11h-.14Zm0,7.69h.14v-.14h-.14Zm0,4.33.22-.14h-.14Zm.07,8.27H975l.07-.14-.22-.07Zm.25-10.87.22-.22-.14-.29-.25-.18v.18l.11.22Zm-.18,3.57h.36l.25.22,0-.25-.25-.22-.18.11Zm0,4.08.14.29.33,0-.18-.29Zm0,3.54v.11l.07-.18ZM975,1005l.18.14.29.07-.29-.61H975Zm0,2.56.29,0,.14-.18-.29-.14Zm0,.79.14.18.14-.25Zm.14-8.88.33,0-.11-.18-.29-.18Zm-.07,13,.22-.11-.14-.14Zm0,3.14.18.11.18-.11-.22-.11Zm.14,1.59.32-.18-.32-.22Zm.07-14.44h.18l-.18-.14Zm0,12.6.22.22.11.36.25-.11-.33-.58Zm.47-11.88-.07-.14-.32-.25.11.29Zm-.29,12.74.69-.07-.18-.18-.29.07Zm0,2.38h.14v-.14h-.14Zm.14-14.26h.22l-.22-.14Zm0,2.82h.14l.07-.22h-.22Zm.14-1.55h.11l0-.18Zm.11-.54.14-.18h-.22Zm0,12.13.22-.32-.29.07Zm.07-8.12h.14V1009H976Zm0,1h.14V1010H976Zm.47-3.47v-.22h-.18Zm-.18,9.86h.18l-.11-.25Zm.25-9.21-.18-.25,0,.25Zm-.07,8.34-.14.18.07.14.18-.25,0-.36-.18-.25,0,.29Zm.4-9.31-.07-.25-.18-.18,0,.29Zm-.25,10.51.25.07.14-.14-.22-.07ZM980,999.72l-1.34-.18-.58,0-.22.07-.25-.11-.32,0-.18.18-.07.76-.11.25.11.29-.11.87.14.33v.94l-.22.33.18.76,0,.25.47.29,1.19.18.22-.22.61.14.94-.07.51.14.54-.83.14-.51-.22-.36,0-.5.18-.79-.11-.22-.11-.58v-1.41l-.29-.11h-.87Zm-3.14,16.64.14.07.07-.14-.14,0Zm4-6.71-.9-.11h-2.67l-.14.14-.18.61,0,.65.14.61-.11.36v1.95l.22.79.14.18.32,0,.14.18.58-.18.61,0,.94.07.36-.14.47.14,1.52-.14-.11-.58.07-.9.11-.25-.14-.14-.07-.25.11-.5-.11-2.27-1.12-.43Zm-3.94,8.92H977v-.11h-.14Zm.14-19.86h.14v-.14H977Zm.47-1.88-.14-.18-.25-.07.14.18Zm-.25,20.69h.11l.07-.14-.18-.07Zm0-.69h.14l-.07-.18Zm.36-10.79h.25v-.18Zm.18.79H978l-.07-.18Zm.29-10.11.25,0,.61.29-.11-.29-.25-.18.22,0,.14-.18-.47-.18,0,.33-.29,0Zm.11,19.71.22.22h.25l.07-.29-.14-.18-.11.22Zm.4-.47h.33l.07-.25-.25.07Zm.36,2.92.14-.14,0-.25-.18,0,0,.18Zm0-21.45h.25v-.14l-.14-.07Zm0,8.34h.11v-.14H979Zm.25,12.6.33-.07.22-.22-.36.07Zm.47-20.61,0-.22-.07-.22-.25-.11.14.29Zm-.22,19.21h.22l-.22-.22Zm.14-.47h.14l.07-.14-.22-.07Zm.22-18.34H980l-.18-.11Zm.11,8.09.14.07-.14-.22Zm.14-8.67h.14v-.14h-.14Zm0,20.18.22-.14-.07-.18Zm.07-21.52.22.11,0,.29.4.07V996l-.22.11-.25,0Zm.4,20.65.25-.14-.07-.11-.25-.07-.14-.14,0,.22Zm0-18.92.14.07,0-.14Zm0,10.11h.14V1008h-.14Zm.25-10.79-.18.07.11.11Zm-.11-.25.32.07v-.29Zm0,21h.11V1018h-.11Zm.18-12.2.22.07-.14-.18Zm.22-8.12,0-.47H981l0,.29Zm0,.76.25-.22-.22,0Zm0,18.05h.14v-.14h-.14Zm0,1.91h.14v-.11h-.14Zm.54-20,.07-.54h-.25l0,.33Zm-.18-2.56.29-.18-.11-.29-.18.22Zm.25.22.14.07.07-.14-.14-.07Zm.25,10.58h.14v-.11H982Zm.07-7.18.22.14-.14-.29Zm0,8.05h.22l-.22-.11Zm.07-2.64h.22l-.14-.29Zm.22-6.9.11-.18h-.22Zm.11-.9.22-.36-.25,0-.11.22Zm.4,3.32-.25-.18-.25,0,.29.11Zm-.43-4.66h.32l-.22-.29Zm0,7.18.25,0,.07-.29h-.32Zm.25,1.08-.14-.29,0,.22Zm-.07-.61h.14l.07-.14-.22-.07Zm.14-5.74.18.14v.25l.25-.11.22-.4-.36,0Zm.07.69.18-.07-.14-.07Zm0,.32H983l-.18-.14Zm.51,6.54-.14-.29h-.32l.29.14Zm-.47,10.07.29-.14.18-.25-.36.11Zm.07.9.29-.18L983,1016Zm.14-15.31.22.07-.07-.22Zm0,14.8.22.07-.14-.22Zm.07-15.81.22-.14-.14-.18Zm.33-3.72.22,0,.11-.18-.22,0Zm.54,2.6.18-.33h-.65l.14.22Zm-.4-1.95.11.22L984,997l.14-.14-.25-.11Zm.07,6.53.14.25.25-.11-.07-.22Zm0,12.35h.11v-.14h-.11Zm0-3.68.22-.14h-.14Zm.14,1.16h.25l.07-.14h-.33Zm.07-10.69h.14v-.14H984Zm0,11.59.25,0,0-.14Zm.07-16.32.18-.11-.11-.14Zm.4,4.26-.25-.07.11.22Zm-.07,13.21h.14v-.14h-.14Zm.07-8.81h.14v-.14h-.14Zm.07,9.93h.11v-.14h-.11Zm.07-17.91.22-.14-.11-.22Zm0,5.31.22-.11h-.14Zm.14-2.2.07.22.22-.29Zm.07-1.81.14.07-.14-.18Zm.25,3.68h.14v-.14h-.14Zm.36-.07,0,.14.29-.22Zm0-2.92.11.54.18.18,0-.22-.14-.25,0-.25.07-.14Zm.07,1.73h.29V1002Zm.76,9.86h.11V1012h-.11Z" transform="translate(-735.94 -829.49)"/><path class="cls-1" d="M999.05,1016.33l-.18-.33v-1.88l.14-.54-.14-.5v-1l.14-.22-.14-1.37.14-.29-.14-.25,0-.33.18-.87-.14-.22-.07-.54.4-.07-.22-.22-.11-.36.07-.54-.07-2.53,0-.54.14-.47-.14-.54v-1.81l-.11-.79.22-.51-.11-.29v-.94l-.11-.25.32-.72-.18-.29.11-.94.22,0v-.36l.4-.36.14-.29.47-.18.11-.22.4.14.29-.36.32-.07h.58l1.16.14.83-.11.25,0,.25.14.25-.14h.69l.54-.11,1.19.11h2.35l.76-.11.61.11.33-.11,1.23.11h.79l.65.54.4.14.22.18.47.79v.22l.22.54v.29l-.11.25.22.51-.07.22,0,1-.14.22.18.47.07.94-.14.54.07.25v.65l-.18.61.18.54v.33l-.18.54.18.33-.14.54.11.29.07.61-.07,1.19.11.58-.11,1.12.07,2.2-.11,1.48.14.33-.11.65.11.22-.22.54.22.32,0,.25-.11.14.11.22-.11.79.11,1.23-.11.65-.87,1.23-.32.14-.22.25-1.23.22-.9.07-.25-.22-.18.11-.29-.11-.33.22-.58-.07-2.89.07-.32-.14-1.66.14-.58,0-.51-.11-.33.11h-.32l-.22-.18-.51.18-.9-.11-.47.14-.29-.14-.36-.07-.14-.25-.54-.22-.54-.58-.4-1-.18-.83.11-.18Zm.76-6.53h.11v-.14h-.11Zm.18-6.14.14.07-.14-.18Zm.29-5.31h.11l-.18-.07Zm0,2.71h-.11l.11.14Zm0-.58h.14v-.14h-.14Zm0,8.27h.14v-.14h-.14Zm.07-.69.25-.11,0-.22-.22-.14,0,.25Zm.22,4.8,0-.36-.11-.25-.07.25,0,.25Zm-.22,1.8h.25l.11-.14h-.36Zm0,2h.14l-.14-.18Zm.4-13.32-.07-.25-.25-.07.11.22Zm.07-2.92v-.47h-.18l0,.29Zm-.18,5.27.61.11.25-.07-.25-.18-.4,0Zm0,9.53h.11v-.14h-.11Zm.07-8.16.18.29.22-.22-.22-.11Zm0,2.09.36-.07-.11-.22-.25-.07Zm0,3.07.22-.07.07-.22-.22-.07Zm.14,5.7.07-.25-.18.11Zm-.07-19.24.14.07.07-.14-.14-.07Zm0,6,.14.07.07-.14-.14-.07Zm0,12.78.14-.07-.14-.11Zm.69-15.78-.36-.4.11.33Zm-.36,8.2.29.07-.22-.29Zm.14,3.61.07-.22-.14-.14-.07.22Zm.54,3.18-.69-.11.14.22.33,0Zm-.47-5.6.25-.54-.33,0-.11.36Zm-.07-6.39.22.18,0-.25Zm0,10.72.14.07.07-.14-.14-.07Zm.33-7.11-.18,0,.11.14Zm-.07,6.07h.14v-.14h-.14Zm.22,1.84.07-.22-.22-.11,0,.22Zm-.14-13,.14.07.07-.14-.14,0Zm.07-2.06h.14l-.14-.18Zm0,7.8.11.33.29.14-.11-.25v-.29Zm0,1.34h.07l.07-.14h-.14Zm.47,5.05-.18.36-.22-.14-.07.07.33.32.07-.25.47-.14-.11-.25Zm-.4,2.42h.14v-.14h-.14Zm.25-16.61.25,0,.11-.14-.29-.07-.18-.22,0,.22Zm-.11.61h.11l0-.22Zm0,3.93.33.11-.11-.25Zm0,2.13.25.11.07-.25Zm0,4.8.25,0v-.11l-.14-.07Zm.07-1.95.25-.33H1002Zm.11-12.67.29-.18-.22-.14H1002Zm-.11,5.09h.33l-.22-.11Zm0,2h.14l-.18-.07Zm.14,8.2v-.18l-.18-.14Zm-.14-8.74.18-.11-.11-.14Zm.07,2,.11.18-.14.22.11.18.29-.65-.25,0Zm0,8.52.22.07.18-.54-.18-.07-.11.29Zm.07-15.45.22.11.11-.25-.11-.14Zm.14,16.79h.18l0-.29-.14-.18-.11.25Zm0-14.55h.18l-.18-.11Zm.07-.33h.11v-.14h-.11Zm0,3.68.22,0-.11-.18Zm0,5.7.33.14.11-.33-.11-.22-.14.22Zm.11,2.56.11-.22-.11-.14-.11.18Zm0-6.28.33-.14-.14-.25-.11.22Zm0-2.78.14,0-.14-.18Zm.22,1.52.33-.14-.25-.11Zm.07,1.48h.25v-.14l-.14-.07Zm.51,7.83-.51-.11.11.22.25.11Zm-.51,2.56.07.18h.33l.18-.18-.29-.07Zm.07-7.55.25,0,.07-.18Zm0-9.06.11.18.25,0-.14-.22Zm0,6.79.14-.07-.14-.11Zm0,8.81.11.29.29,0,.14-.58-.18-.07-.07.33Zm.14-16.72.14,0-.07-.18Zm.22,14.26v-.25l-.14-.11-.07.25Zm-.14-14.62.18-.11h-.11Zm.25-.5.36.11v-.4l-.22.11Zm0,18.3h.14l-.07-.18Zm.22-2v.4l.4-.43-.14-.25Zm.33-18.49.07-.25-.18.11Zm-.07,21h.14v-.14h-.14Zm.07-1.48h.22l-.22-.11Zm.22-.25.18-.47-.07-.14H1004l0,.36Zm.18.33.14.07.07-.14-.14,0Zm0,1.95h.29l-.14-.18Zm3.39-19.06-1.77,0-.76-.11-.5.4-.14.25.07.76-.14.33.14.33-.14.33.11.22,0,.33-.14.33,0,.33.14.29-.11.79-.14.22.22.47-.14.54.07,1.19,0,.54-.11.25.14.18.07.29-.07.29,0,.54-.11.36.11.54-.11,1.16,0,.58.11.33-.22.61.14.14,0,.9.11.22-.11.33,0,.51.14.22.43.29.54-.14.54.18,2.42-.11.51.07.22-.18.14-.25.11-.65-.07-.87.22-.33-.22-.32v-.83l.14-.25-.11-.54v-1.26l.11-.54-.11-1v-2.42l-.11-.87.22-.32-.11-.47v-.87l.11-.25-.18-.54,0-.32.36-.54-.25,0-.11-.14.07-.29V1000l-.14-.22-.22-.14-.79-.14-.32,0Zm-3.32,16.79h.32l-.07-.25-.25-.07Zm.22,1.8.18,0,.22-.11-.22-.18Zm0-2.92h.14v-.14h-.14Zm.83,2.6-.29-.22.07.25Zm-.22-.61.51.18.14-.18h-.25l-.33-.32Zm.07-.61h.14v-.11h-.14Zm.33-.11v.11l.22.07,0-.18-.18-.07Zm.07.47.4.25-.07-.22.07-.25-.25,0Zm.79-18.2,0-.22-.14-.14,0,.29Zm.22,18.7v-.25h.25l-.14-.18-.22.11-.11.18Zm-.07-21h.11l0-.22Zm.18,20.11.22-.11h-.14Zm.22-.33.14.18.25.11-.11-.29Zm.25,1.34.18.18.14-.25Zm1.16-1.26v-.22l-.22-.11,0,.22Zm.25,1.26v-.25l-.33-.07.11.18Zm.07-18.92.33-.07-.25-.14Zm0,17,.18,0-.11-.18Zm.25.5h.14v-.11h-.14Zm0,1.66h.14v-.11h-.14Zm.14-1,.22,0,.11.22h.33l-.18-.4-.33,0Zm.18-1.08.14.07-.07-.18Zm.14-17,.22,0v-.22Zm.33,18.77v-.18l-.18-.14Zm.54-19.86,0-.25-.25-.11-.11-.25h-.22l.11.29.18.18Zm-.4-.94h.14v-.11H1010Zm.47,1.73-.07-.33-.14-.25H1010l.29.43Zm-.22,18.66v-.54l-.22.14v.25Zm.07.69-.25-.22v.29Zm-.18-2.13.25.18,0-.22Zm.07-14.08.18-.18-.14-.22Zm0,17.33.47-.14-.07-.18-.22-.07,0,.25Zm0-18.41h.22v-.18h-.14Zm.29,2.56.18-.14-.18-.14Zm.07,3.93h.11v-.14h-.11Zm0,9.53.11-.07v-.07h-.11Zm0,.4,0,.25.14.14,0-.29.11-.18Zm.79-18.34-.22-.14-.51-.07.11.36.18-.14.58.18.25-.32-.07-.25-.22.18Zm-.69,2.27.4-.07-.07-.22-.25-.07Zm.22,15,.14.07,0-.14Zm.07-8.59h.11v-.14H1011Zm.4,7.94-.07-.22-.22-.14.14.22Zm-.22-15.74.22.25.32-.5-.25,0Zm0,1.19.29.07-.11-.18Zm.47,1-.14.25.22.22.07-.25,0-.25.11-.18-.18-.14-.5-.11.22.25Zm-.4-4,.29.07.07-.29.18-.18-.36.11Zm.07,16.68.14-.11-.14-.11Zm.32-10.22.14.29.18.18.43-.14-.47,0-.29-.54-.25-.14v.25Zm-.07,11.8v-.14l-.18,0Zm-.11-9h.11v-.14h-.11Zm.11-11.34v.14l.22,0,.07-.18-.22-.07Zm.07,4.19.54.07-.07-.22h-.29Zm0,8.67.14.07.07-.14-.14-.07Zm0,8.27h.14v-.14h-.14Zm.14-16.32.18.22.25-.11.11-.25-.22-.18v.33Zm.07,14.4h.18l-.18-.14Zm.25-16.75-.18.07.11.11Zm-.07,9h.14l-.22,0Zm-.07,10.36.11.11h.25l-.14-.18Zm.29-19.93-.18.18,0,.25.22,0Zm.07,4.37-.07-.25-.14-.14,0,.29Zm.11-3.57-.22.07-.11.18.47-.14.14-.47-.4,0Zm-.25.72h.14v-.14h-.14Zm.22,8.67h.11v-.14h-.11Zm0-8.41.29.07v-.18Zm0,11.55h.22v-.22Zm.07-10.54.25-.11.07-.29-.32.11Zm0,3.47v.14l.22.07.07-.07v-.14l-.22-.07Zm.07,3.32.14-.25-.22-.07Zm.14-4.73.14-.22-.07-.18-.22.22Zm-.07,3.39.25.22.29-.22-.33-.07Zm.14,3h.11v-.14h-.11Zm.11-9.75.14.07.07-.14-.14-.07Zm0,3.72.25.07.18.14.18-.14-.25-.11-.14-.22.14-.33-.22.07-.07.29Zm0,4.87.22-.14v-.18Zm.36-10.25-.29-.22.07.22Zm-.29,3.86h.14v-.14H1013Zm0,15.78h.14v-.11H1013Zm.07-16.71.22-.25-.22-.07Zm0,1.48h.33l.22-.22-.4-.14Zm0,15.85h.14v-.14h-.14Zm.22-16.64.25.18v-.29Zm0,5.31.07.25.25.07v-.25l-.22-.14Zm0-2.71.25-.07.14-.29-.25,0Zm.29,1.66-.11-.25-.18-.14.07.25Zm-.22.72.14.07.07-.14-.14-.07Zm0,12.27h.14v-.14h-.14Zm.07-17.69h.14v-.11h-.14Zm.07-3,.22-.11-.07-.14Zm.07,9.82.14-.11-.14-.11Zm.25-8.27h.14l-.07-.22Zm.32,6.39-.18.07.11.11Zm-.11-2.38h.11v-.14h-.11Z" transform="translate(-735.94 -829.49)"/><path class="cls-1" d="M1034.94,994.77l.25-.25.61.07h1.52l.25.18h.29l.29.51.36,1.12.4,1.73.22.58,0,.29.11.58.25.54-.07.4.33.69,0,.33.18.33.47,2.27.33.9v.58l.22.43-.07.33.25.5.5,2.35.18.54.14.22,0,.32.18.54-.07.25.4,1,.07.58,0,.25.29.54v.54l.18.47.47,1.8.14.25,0,.33.18.32.18,1.37.14.18v.33l-.4.72h-1.23l-.83.07-.22-.14-.18.14h-.47l-.54-.14-.4.14-.54-.18-.22.18-.18-.14-.25,0-.07-.22-.18-.14,0-.25-.32-.43v-.58l-.11-.29-.11-.87-.18-.29,0-.29-.18-.25-.07-.79-.18-.25-.22-.14-.18.18-.47-.14-1,.07-.4-.11-1.37.11-.22-.11-.36.11-.33,0-.43.33-.25.83-.18.29.14.4-.14.25-.18,1.44-.14.58-.4.43-.47.29-.51,0-.22.11-.33-.18-.43.18-.32-.14-.47.11-.94,0-.58-.14-.4.14-.54-.22-.25-.4-.07-.25v-.54l.33-1.19.25-.54,0-.54.29-1.16.07-.61.29-.14-.07-.29,0-.29.29-.61-.07-.61.22-.43.14-.51.18-1.16.4-1.48.22-.54.18-1.19.29-.47v-.87h.32l-.22-.36.76-3.18h.25l-.18-.22.33-.79-.07-.25.14-.22.32-1.7.25-.51v-.72l.29-.4-.07-.29.14-.14-.07-.18.25-.11-.07-.29.07-.25-.07-.29.18-.58.36-.47.69-.4h.61l.36.11.07-.18,1.12.18.47-.11Zm-8.09,20.65.14.07-.07-.18Zm.29,2,.54.07,0-.36-.36.07Zm.87.65v-.18h-.22Zm.07-2.45.14,0-.11,0Zm0,1.26.25-.18-.14-.29-.11.25Zm0-2.6.07.25.22-.14-.07-.18Zm.29-1h.11v-.11h-.11Zm.07,4.95.18-.14-.14-.18Zm.4-2.38.58.22-.11-.47-.25,0Zm0,2.24h.25v-.18Zm.07-9.71h.11v-.14H1029Zm0,4.73.07.25.22.07.11-.22.29-.18-.33,0Zm.36-1.55.18-.47-.22.07-.25-.07.11.29Zm.33-1.44-.11-.25-.29-.07.07.25Zm-.4,1.91.4-.11-.25-.07Zm.07,3.14.25-.14.14-.25h-.33v.18Zm.07-4.4.14-.14-.14-.18Zm0,6.07.11.18.14-.25Zm.11-7.65.22-.11.11-.22-.22.11Zm0,7,.14.07.07-.14-.14-.07Zm0,2.67.18-.11,0-.25h-.22Zm.14-3.43h.14v-.11h-.14Zm.07,2.35h.11l.07-.18h-.18Zm.07-5.81h.11l-.07-.18Zm0,1.08.36-.14-.25,0Zm.07,2h.22l-.14-.25Zm.14-6.57.14-.18v-.18l-.18.18Zm.47,5.85-.14-.14-.18.07Zm.14-12.53-.36-.07.18.14Zm-.07,6.32v-.22l-.29-.11,0,.25Zm-.22,3.21h.14v-.14h-.14Zm.22-.72v-.25l-.14-.11,0,.22Zm.18.33-.33-.07.14.22Zm-.33,5.67h.22l-.22-.22Zm.54-1.26-.47-.22,0,.25.29.11Zm-.47-2.35h.18v-.18h-.11Zm.33-12v-.22l-.25-.11.07.22Zm-.14,4.91h.14l-.18,0Zm.07,1.88h.14l-.22-.07Zm0,2.67h.14v-.14h-.14Zm.07-1.19.4.07-.11-.22-.22-.14Zm.22-5,.18.29,0-.25-.14-.14Zm.25,6.35-.25-.07.11.18Zm0-9.89-.18.07.11.14Zm0,8.09-.07-.33-.11.18Zm-.14-8.27h.14v-.14h-.14Zm0,2.38.25.11.22,0,.14-.18h-.33Zm.07-.87.69-.11-.18-.18-.29.11Zm.14.47.07-.25-.22.11Zm.07-2h.11l.07-.22h-.11Zm0,.65.22.22.29.14.22-.47-.25-.07-.18.25Zm0,2.74.14,0-.07,0Zm.51,3.21-.11-.22h-.29l.14.18Zm-.4,2.38.22-.22-.14-.25v.25Zm.07,4.66.14.07-.07-.18Zm.07-10.43.22-.14h-.14Zm.22-1.48h.11v-.14h-.11Zm0,1.91.29-.18-.32-.07Zm0,1.48h.11v-.14h-.11Zm0-5.27.14.25.22-.11.4-.4h.72l.22-.87-.25.14-.11.25-.18.18-.33-.07-.25-.14-.22.11.14.14v.25l-.18.22Zm0,2.35.14.07.07-.14-.14-.07Zm.36-3.21.07-.25-.22-.07-.07.22Zm-.22,3.93.25,0,.14.18,0-.29-.22-.11Zm.32-5.05v-.18l-.25-.11Zm0,3.39,0-.33-.22.14Zm-.14,4.33h.14l0-.14-.18-.07Zm.18-3.21.14-.18-.14-.22-.07.22Zm.14-5.67h.14l-.07-.18Zm0,14.3h.14v-.14h-.14Zm.22-13.07-.07-.36-.07.22Zm0,1.91h.11v-.11h-.11Zm.33,3.07h-.33l.14.18Zm-.14.72-.18.07.11.14Zm-.18.69v.14l.07-.22Zm1.59-2.35-.14.51-.14,1.16-.18.87h-.25l.11.25-.14,1.19,0,.29-.07.47-.14.22.07.29-.07.33-.25.51v.54l-.22,1.19.25.14,1.12.25,1.7-.11.25-.58v-.36l-.25-.47-.14-1.41-.11-.25.11-.33-.36-.72v-.54l.11-.22-.14-.22v-.32l-.33-.54.07-.47-.11-.54-.43-1.12Zm-1.19.36v-.14H1033Zm.07-1.34.25-.36-.32-.18-.07.33Zm.4-2.82-.14-.14-.25,0,.11.14Zm-.4,3.86h.11v-.14h-.11Zm.18-1.66.29,0,.22-.11.11-.18-.22,0-.18-.14-.29-.11-.07.36Zm-.14,1,.29.18-.22-.25Zm.07,2.53h.22l-.22-.14Zm.29-5.52.25.33.61-.14-.22-.22-.29.07Zm.51,1.37-.14-.29-.33-.11v.22l.22.22Zm-.25-3.11.18.14.07-.22Zm0,1.52h.22l-.22-.14Zm.22-.25h.5l-.14-.18h-.22Zm.11-1.08.36.47,0-.29-.18-.29Zm.54,3.47-.47-.4.14.29Zm.25-1,0-.25-.25-.18-.36-.07.4.4Zm-.25,1.7.25,0-.18-.25-.32-.14.18.22Zm-.18-4.73.25-.14h.33l-.22-.18-.33.11Zm0,2h.11v-.14h-.11Zm0,1.73.18.07-.14-.22Zm.18-2.27.47.07-.18-.25Zm.07-1h.14V997h-.14Zm.25-1,.14-.25-.18.07Zm.07,5.05.25-.18-.33-.07Zm.14.14.07.22.25,0,.25-.51-.25-.07-.11.22Zm.18-2.42.22-.14.14-.29-.25.07-.18.22Zm0,.87.18-.18.11-.32-.22-.07-.11.29Zm.36.22v-.22h-.22Zm-.22,2.53.11.22.22.07.22-.54-.14-.29-.18.47Zm1-2.2-.11-.22-.43-.25.07.29.18.14Zm-.29-1.81.07-.32h-.25Zm0,.69.07-.61-.22.14,0,.29Zm0,1.59.07-.25-.18-.14-.07.25Zm.29-1-.14-.25-.25-.14.07.32Zm-.29,2.67.14.07.07-.14-.14,0Zm.14,2.82.22.07-.14-.22Zm.07-2.46.25.25.14-.32Zm.18-3.75.14.33.22-.11.29,0,.18-.18-.54-.07Zm.29.79h.11v-.11h-.11Zm.07.61h.11v-.14h-.11Zm.11,2.46.29-.18-.4-.4,0,.29Zm0,1.41.07.22.18-.07.11-.22Zm.07-6.21h.14v-.11h-.14Zm.14,13.47.22-.11-.07-.14Zm.25-9.64.07-.29.4-.33h-.4l-.18.43Zm-.11,12.53.14.18.25-.07v-.18Zm.25-11.48.14.07,0-.14Zm0,10.07h.14l0-.14-.18-.07Zm.32-10.69.29,0,.18-.14-.18.07-.14-.22Zm.07-.72h.14v-.14h-.14Zm0,3.07h.14l.07-.14-.22,0Zm0,.22.14.18.18.07v-.33Zm0,4h.14l.07-.18h-.14Zm.54,3.94-.07-.22-.25,0,.07.22Zm-.22.69h.14v-.14h-.14Zm.29,2.71,0-.58-.25-.22v.58Zm-.22.43.14,0-.07-.18Zm.07-8.34.22-.11.11-.22-.18-.07-.07.18Zm0,6.61h.14v-.14h-.14Zm.18-2.6.07.18.22-.25Zm0,1.19h.14v-.14h-.14Zm.22,2.38.29-.22-.14-.25-.07.25Zm.32-8.37.29-.14-.29-.07Zm.54,6.86-.22,0,0,.22Zm.07.65v-.4h-.22l0,.29Zm.18-1,0-.25-.22-.14v.29Zm.36-2.42.11-.25-.33-.07-.18-.22.14.32Zm.25,3,.07-.51h-.47l.18.25Zm-.33,2.89h.25l-.14-.18Zm.11-1.73.36,0,.18-.25-.33.11Zm.76-3.36v-.18l-.22-.14,0,.22Zm.87,3.94-.54-.18.22.25Zm-.29.79h.14V1017H1042Zm.29-1.26h.11v-.11h-.11Z" transform="translate(-735.94 -829.49)"/><path class="cls-1" d="M1061,994.77l.14-.29,1,.11.22.11.5-.18h1.23l.79.18.07-.22.58.07H1068l.58.07.11.14,0,.25.25-.18.9.79.22.54v.33l.29.25,0,.54.07.94-.07.54-.11.25.22.61-.11.54.07,1.8-.11.9.11.5v2.35l-.11,1.16.11.51-.14,1.16,0,.25-1,1.26-.54.25-.18.18-.29,0-.83.14-.36.29.47.9.07.29.65,1,1.08,2.13.65.94.07.36.29.47-.07.25.33.22,0,.22.07.22h.29v.43l.22.25.07.29.25.18-.25.54-.22.25-.25,0-.22.11-.33-.29-.14.29-.65-.07-.33-.14-.25.07-.14.14-.25-.07h-.9l-.47-.22-.18.18-.36,0-1-.61,0-.33-.25-.14,0-.33-.14-.25-.36-.36-.18-.58-.58-1-.07-.54-.4-.43V1015l-.61-.65-.11-.29,0-.33-.36-.43-1.12-2-.18-.22.07-.25-.33,0-.4-.29h-.29l-.33.36-.14.47.07,1.77,0,.58-.18.54.22.33v1.08l-.14.25.11.72v1.88l-.11.58-.18.47-.32.29-.61,0-.22-.18-.22.14-.65.07-.33-.07-.25-.14-.58.18-1.19-.11-.29.07-.25-.18-.36-.47-.11-.29,0-.65.29-.07-.29-.61.11-.18-.11-1.23.14-.25-.14-1.16.14-.43-.11-.43.07-1.16-.14-.9.18-.33-.14-1.23.14-.9-.11-.54v-1.7l-.11-.54.22-.47-.07-.25-.14-.14.11-.54v-1.77l.11-.58-.11-.22-.11-.51.29-.79-.22-.54,0-.65.11-.22-.14-1.23.14-1.7-.22-.29.29,0-.14-1.26.25-.54.32-.11.22-.25.22,0,.87-.11.54.14.5-.11.36.18.58-.11h2.82Zm-6.07,18.85h.14v-.11H1055Zm.76-2.06-.14-.33-.29-.22-.25-.07.47.43Zm.9,2.46-.29-.11-.33-.33-.29-.07.14.25.51.36Zm-.87-3.94.4-.18h-.32Zm.14-12.17.14,0-.07-.18Zm.25,2.71-.18.07.11.11Zm.29,12.82-.07-.18-.25,0,.11.18Zm-.33,2.78.25.07-.11-.18Zm0-14.37.22,0-.14-.18Zm0,.79.14.07.07-.14-.14-.07Zm0,1.59.43.07-.43-.32Zm0,7.47h.14v-.14h-.14Zm.36-10.61-.18-.11-.11.43.18-.11Zm-.29,2.53.36,0-.22-.07Zm.36,1.08-.11-.14-.25-.07.11.22Zm-.29,6.71.33-.11-.07-.29-.25-.11,0,.25Zm0,1.34h.22l-.22-.11Zm.33-16.1,0-.33-.14-.14v.25Zm-.18,15.6.47,0V1012l-.29.11Zm.14-10v.11l.18.07.07-.18-.22-.07Zm.18-.22.14-.4h-.22l-.07.25Zm0,1.48.07-.18-.14-.18-.07.22Zm-.14,1.84v.14l.07-.18Zm0,2.49h.22l-.22-.14Zm.07-3.07h.22l-.22-.22Zm.14,10.07.25,0,.14-.18-.47-.4,0,.29Zm-.07-4.3h.14l-.14-.18Zm.07.94.14.07,0-.14Zm.25,2.42-.25-.07.11.18Zm-.25,1.34.14-.11-.14-.11Zm.65-11.88-.11-.29-.22-.18v-.33l-.18-.22,0,.58.11.29.18.18Zm-.5,4.48h.11v-.14H1057Zm0,2.78.22.07-.14-.18Zm.07-1.26.36-.07-.07-.18-.22-.07Zm.29-9.24.25-.29-.14-.14,0-.25h-.29l.25.4Zm-.22,16.5.14.07-.07-.18Zm.29-3.47-.07-.58.22-.07.11-.22-.22-.11-.14.18-.07.29,0,.29Zm-.07-1.52.11-.22-.18-.11Zm.4-8.81-.29-.11.11.18Zm-.14-.47.33.14-.11-.25Zm.25,5.81,0-.5-.22,0,.11.29Zm-.11-7.4.18-.47-.25.22Zm-.07,3.25h.14v-.11h-.14Zm.07,6.68,0,.22.22,0,.11-.25.22-.25-.25-.36-.11.25v.25Zm.47-1.59-.36-.22-.07.25.14.14.29-.11.25.11.11-.22.43-.25-.22-.14-.4.25Zm-.14-2.13.07-.36H1058l0,.22Zm.32,4.44-.18.07-.29-.07.11.18.25,0,.07.22h.18l0-.29.22-.18-.33-.07-.25-.14.07.22Zm-.4-13.39h.14v-.11h-.14Zm.07,7.8.18-.11-.18-.14Zm.07,2.53.14-.25-.22.07Zm0-3.57.25-.18-.11-.22-.11.18Zm.18,7.73.07-.29-.11-.25-.07.33Zm0-15.05h.14v-.14h-.14Zm0,15.92h.22l-.14-.25Zm.29-7.87,0-.25-.18-.07,0,.22Zm0-8.59.07-.25h-.22Zm-.14,13.94.18.14.22-.14-.22-.07Zm.07-12.6h.14v-.14h-.14Zm0,11.52.29-.11.18-.22-.29-.07-.11.18Zm.14-12.38h.22l.11-.29-.22.11Zm.11,2.13h.14v-.14h-.14Zm.07,6.25.22-.18-.07-.22-.11.18Zm.61,1.3-.22-.11-.33,0,.4.51-.32.14.25.07.07.25.22-.14v-.32l.36-.4.14-.25-.25,0-.14-.22,0,.25Zm-.54,3.39.4.25v-.22l.22-.18-.22-.11-.22.07Zm.54-13.36v-.25h-.4l.18.14Zm-.4,12.35h.11v-.14h-.11Zm.58-11.48v-.29l-.18-.14v.22Zm-.18,11.55h.11l.07-.22h-.11Zm.07-1.26.11.22h.25l.11-.22-.29,0Zm0-12.42h.14l-.07-.18Zm0,.47.33,0,.14-.22-.25.11Zm5.34,7.15-.14-.69.11-1.08-.11-1.84-.18-.14-.47-.18-.4.14-.47-.11h-.51l-1.19.14H1061l-.11-.11-.87.07-.14.25-.29.14.18.47v.25l-.11.25.22.22-.22.33.11,1.19-.11.94.11.58v.61l.25.54.79.11.18.11,1.16-.18.65,0,.33.14.61-.14.54.14.58-.47.11-1.37Zm-5.27,2.78.47.14V1006l-.29,0Zm.07,3.83.18-.14,0-.22Zm.07-13.47.33.07-.11-.25Zm.14,10.9.14.22.61-.51,0-.22-.14,0-.25-.18-.07.33.07.29Zm.11.54h.14l.07-.18h-.14Zm.14,1.19.25.07.07-.25Zm.22-10.43,0-.29h.29l-.11-.22-.22-.11-.11.18,0,.25Zm.18,7.83-.32,0,.11.18Zm.22,1.23.33,0,.33.14v-.5l-.14-.25-.18-.11-.25.4Zm.11.94.22-.36-.22-.07-.11.22Zm0,.79.22.11-.14-.25Zm.47-11.41.22-.22-.07-.25-.07.25Zm0,11.12.14.36.4-.07-.11-.22-.18-.11Zm.29-2.2h.11V1007h-.11Zm0,3.54.18-.11h-.11Zm.4-1.44,0-.65-.07-.25-.22-.11.14.83Zm-.07-13,.25-.14-.07-.25-.25-.14.07.25Zm.07,1.26.22-.14.11-.22-.22.11Zm.11,1h.14l.07-.18h-.22Zm.07,10.22.14.07.07-.14-.14-.07Zm0,2.24h.14v-.11h-.14Zm.29-2.71V1008h-.22Zm-.22,1.26.22-.11.11-.22-.25-.22v.25Zm.07-11.41.47-.22.18-.18-.32-.33-.29.4Zm.4-.87h.14v-.14h-.14Zm.22,10.07,0-.33-.11-.29-.07.36Zm0,1.8,0-.18-.22-.11Zm-.11-.87.22.22-.11.33.22-.18.07-.29.18-.22h-.29Zm.25-.47.22,0,.07-.25-.22.11Zm.07,2.2.4.07-.18-.22-.07-.25-.11.14Zm.14,2.45h.11l.07-.18h-.11Zm.51-5.38-.25-.14v.29l-.18.18.11.18.29-.14.11-.33.22,0,.14-.22-.36-.47v.29Zm-.4,2.24.14.22.25-.22-.25-.07.14-.14-.07-.18-.11.22Zm.07,2.42.07-.18-.14-.11Zm.07-13.54h.14V998h-.14Zm0,10.33h.14v-.14h-.14Zm.25,2.06h.54l0-.36-.22-.18-.32-.11-.14.25.4.07-.11.22Zm.22-1.37V1009H1064Zm.25-.22.36.14-.14-.25Zm.22,2.53.07-.25-.22-.07,0,.22Zm.25-4.58v-.29l-.4,0,.14.22Zm-.4,1.26v.14l.14,0,.22-.07.25,0-.11-.22h-.25Zm.47-10.07-.14-.25-.25-.14.11.29Zm-.4,9.53h.14v-.14h-.14Zm0,2.53.33-.11-.25-.07Zm.54-12.53,0-.25-.18-.14,0,.29Zm-.14,11.66.18,0-.11,0Zm0,2.2h.14v-.11H1065Zm.29-13.25-.22-.14.11.33.61.14-.25-.65-.22-.07.14.22Zm-.14,10.65.18.07-.11-.18Zm.18,5.67-.18-.25v.22Zm.07-3.86.14.07-.14-.22Zm.07-4.4.33-.11v-.43l-.18,0Zm0,1.88h.22l-.14-.25Zm.07,1,.11.61.22.18.18-.22-.36-.47.22-.14-.11-.18Zm0,6.32.14.14.18-.14-.18-.11Zm.07-6.71h.11l0-.22Zm.11-6.9h.14v-.11h-.14Zm.14,2.27.11-.29-.11-.25,0,.33Zm.07-1.12h.14l-.07-.22Zm.4,4.8,0-.22-.18-.14-.25,0,.14.25Zm-.4,7.4h.14v-.14h-.14Zm0,1,.47.07-.07-.25-.18-.14Zm.07-2.67.11.22.22.07-.11-.29Zm.25,3.07-.25-.18.07.22Zm0-14.33,0-.29-.22-.18,0,.29Zm.4-2.6-.07-.25-.18-.14-.25-.07.07.25.22.14Zm-.33.36,0-.22-.18-.14Zm-.14,15.63.25-.11-.25-.14Zm.07-9.31h.14v-.14h-.14Zm.14,2.13.25.07-.11-.18Zm0,.32v.14l.07-.22Zm.25-11.34.07-.33-.18-.07-.07.25Zm-.18,1.23h.11v-.14h-.11Zm.11,4.8.29-.36-.22-.11-.18.25Zm.07,3.39v-.29l-.18.07Zm-.18,8.45h.25l.14-.25-.29,0Zm.4,1-.33-.14.11.22Zm.07-16.21.07.22.18.07-.07-.29-.18-.14-.29,0,.07.22Zm-.29,4,.47.22.22-.18.11-.25-.5.14.07-.25-.07-.14-.14.25Zm.29-2.6-.14-.47-.11.25Zm-.22,4.58.22.47.33-.07v-.32l-.25.07Zm.29,8.09-.29-.14.11.22Zm-.22-15.2.61-.22-.61-.4.11.29ZM1067,998l.07-.22-.11-.18-.07.25Zm-.11,1.88h.11v-.14h-.11Zm.07,5.42.33.11.32-.25-.36.07Zm0,13,.22-.14-.11-.18Zm0-14.91.14-.11-.14-.11Zm0,4.51h.14v-.25H1067Zm0,.94.18-.14-.18-.18Zm.07-11.37.22,0-.14-.18Zm.07,5.24.18.14,0,.22.25-.07.14-.14-.07-.33-.32,0Zm.07,5.56.18,0-.11-.18Zm.07-3.47.47-.14-.47-.22Zm0,13h.18l-.18-.14Zm.07-10.47.11.18h.29l-.14-.22Zm.25-8.27v.18l.22-.18-.43-.14Zm-.07,4.12-.14.22.54.18.14-.18.07-.29-.4.25Zm.22,12.2v-.14l-.18,0Zm-.07-5.78h.18l-.18-.22Zm.07,6.46h.11V1016h-.11Zm.18-7.33.22,0,.11-.47-.22.18Zm.07-8.67.11.25.22.14,0-.25-.14-.18Zm.25,1.12.22-.07.14-.14h-.25Zm.07-4h.14l-.07-.18Zm.14,7.33.14-.18-.29-.07Zm-.07,3.54.22-.07-.11-.22-.18-.11Zm0-5.92.29-.22-.29-.07Zm0,.94h.14V1003h-.14Zm0,3.18.29-.18.18-.29-.14-.11-.22.25Zm.29-9.21h.11l-.07-.18Zm.25,3v-.33l-.14-.14v.29Zm.47,3.39h.14v-.14h-.14Zm.07,2.24h.11v-.11h-.11Z" transform="translate(-735.94 -829.49)"/><path class="cls-1" d="M1098.24,1001.49l.25.29-.11,1.23v3l.11.18-.25.4.11.25.11.94-.11.94.11.87-.14.25.11.22v1.26l-.18.33.11.47.14,2.31-.07.29-.18.14.14.22,0,.61-.11.29.25.14-.14.58,0,1.08-.43,1-.33.36-.47.32-1.37.47h-.36l-.25-.14-1.73.14-1.19-.07-.54-.14-.25.14-.29-.14-.54.22-1.55-.07-.29.07-.4-.22-.14.22-.54-.07-1.33.07-.18-.29-.36.29-.29-.11-.58.18-.83-.14-.83.07-.14-.18-.32,0-.14-.33-.25-.25v-9.17l-.07-2,.22-.36-.11-.18,0-.54-.11-1.66.18-.79-.07-.32-.14-.22.11-1.19V1000l.11-.36-.25-.4.18-.47-.07-.25.07-1.7-.14-.83.14-.54-.07-.33.69-.54.29-.11h.29l.29.11.11-.14.29.22.25-.22,1.19,0,.76.11.72-.22,1.66.22.25-.11h1l.29.11.58-.11h1.12l.29-.07.54.18h.29l.5-.18.94.07.87-.07.25.14,1.08.22.25.11.65.61.54,1.12-.11.33.18.47.07.61v1l-.14.33.07.54-.11.25.14.87-.07.29Zm-15.09,2.6h.22l-.22-.25Zm0,12.27.29.07-.11-.18Zm.14-17.87h.14l-.14-.18Zm.14.76.18.07.22-.07-.25-.11Zm.4,10.4,0-.29-.25-.14.07.25Zm0-4.48V1005l-.18,0Zm0,8.74.18.18.14-.22,0-.22-.22-.14.11.33Zm.14-15.6.25,0,.14-.25-.25.07Zm0,1.37.25.29.07-.22-.07-.18Zm0,6.75h.29l.11-.33-.25.11Zm.5-3.29-.07-.14-.25,0Zm0,2.2-.07-.25-.22-.07.07.25Zm-.22-5.92h.14l.07-.18h-.14Zm.07,1.12h.18l-.18-.11Zm.47.54-.29.22.33.11.22.22.07.25.18-.07.07-.25-.58-.65-.4-.07.14.22Zm-.07,1.63-.07-.25-.25,0,.11.18Zm-.25,10.72.33.11-.14-.22Zm.4,2.2-.07-.07-.33.18h.51l.14-.29.54-.11-.29-.14-.11-.25-.11.25-.18.18Zm-.36-16.46.29,0,.11-.25-.25.07Zm.14-1.41h.14v-.14h-.14Zm0,2.53.61.47.33-.61-.22,0-.07.25-.5-.14Zm0,14.19.22-.11.11-.22-.25-.07Zm.25-17.4-.18.07,0,.07Zm-.18,9.5h.14v-.14h-.14Zm.33-3.93,0-.29-.22-.18v.25Zm.22,7.51V1010l-.29-.07ZM1085,1012l.36-.14-.25,0Zm.29-7.73v-.18l-.22-.14,0,.22Zm0,8.52v-.29l-.22-.11.07.25Zm0-15.6-.07.33.4.22-.14.29.22.18.07-.33.25-.22.18-.29,0-.25-.18.18-.29.14-.25,0Zm-.07,5.92h.32v-.25l-.25.07Zm0,5.49.25-.14-.25-.07Zm.25,5.38.07-.33-.18-.07v.25Zm0-6.07.22-.18-.07-.29h-.22v.25Zm.07,1.34h.14v-.11h-.14Zm0,4.15h.14v-.14h-.14Zm.14-14.33.4-.14.07.22-.29.11.07.29.22.11.11-.29,0-.29-.18-.25-.25-.14,0,.22Zm0,.94h.18l-.18-.14Zm0,8.74h.11v-.14h-.11Zm0,5.23.25-.18h-.25Zm.07-13,.14.11h.25l-.22-.25.33-.14-.36,0Zm0,14.3.18-.11h-.14Zm.25,2.89-.25-.07.11.18Zm.14-19.93-.14-.07-.22.22.47,0,.29-.47-.22-.11,0,.25Zm-.29,3.72h.14v-.11h-.14Zm.22,15.6.25-.47-.18-.11-.11.33Zm.25-15.27v-.18l-.25-.07Zm-.25,3.36h.14l0-.22h-.11Zm.14-4.62.07.25.18.14.07-.43Zm.18-3.86.14.07.07-.14-.14,0Zm0,3.21v.4l.29,0,.11-.22-.25-.29Zm.07-.4.29.11.11.29.22,0,.11-.18-.25-.07-.07-.18-.22-.14Zm0,6.07h.22l.11-.14h-.33Zm.18-.87,0-.29-.07-.11-.11.25Zm-.11-5.92.18-.25-.18-.29Zm.07,17.65h.11v-.14h-.11Zm0-14.55.14-.07-.14-.11Zm0,1.26h.14l-.07-.18Zm.47-5.2.14-.51-.47-.14.11.22,0,.29Zm0,1.08.25,0,.22-.11.07-.33-.29.14Zm.61,18.66-.4-.14.07.25.18.07Zm-.14-21.19v-.22l-.18-.18,0,.25Zm-.07,20.18h.22V1017h-.22Zm.07-.79.22-.22-.07-.25-.11.22Zm0,1.66.14-.07v-.07h-.14Zm.29-20.4v.14l.18.07.07-.22-.18-.07Zm4,2-1.19-.18-.33,0-.22.14-.18-.14-.22.14-.4-.14-.11.14h-1l-.14.33-.11.87.14.14-.11.25v.72l.14.22-.18.79v.25l.11.29-.07.65.14,1.08-.14,2.06.14.33-.14.79,0,.65-.14.29.18.07,0,.58-.07,1.88.11.54-.18.25.11.51-.11.5.25.94.25.11h1.12l.54.14.61-.14.65.11.22.11.65-.22.4-.32.14-.33,0-.65.18-.29-.18-.22-.07-.25.14-1.55-.07-1,.11-.14-.11-.25,0-.33.07-.29-.18-.29.33-.18-.29-.61.14-.32-.11-.58,0-1.48-.07-.22.07-.18-.11-.87,0-.36.18-.07.11-.18-.29-.4.11-.22-.07-1,.11-.29v-1l.07-.29-.29-.58-.36-.43-.18.11Zm-3.39-2.82h-.47l.29.18Zm-.11,19.13h.11v-.14h-.11Zm.4-17.87-.11-.22-.25-.11.07.25Zm-.22.47.14.07.07-.14-.14-.07Zm.29-1.66.18.14.22-.14Zm.25-.72.25-.18-.18-.22Zm.33,1.19.33-.14-.47-.25Zm.33-.87.07-.25-.11-.14-.11.22Zm0,21.59h.11V1018h-.11Zm.25-20.58.18.11-.11-.25Zm1.48-.54h.18l-.18-.14Zm.18-.54h.14l-.07-.22Zm.14,1.26h.11v-.14h-.11Zm.18-1h.4l-.18-.36-.14.18Zm.29.65.11.18.22.07-.07-.33Zm.58,1.26v-.32l-.18.14Zm-.11-.65h.18l-.18-.22Zm0,1,.25-.07,0-.18Zm.36-1.59.18,0,.22.11.18-.47h-.25l-.14.22Zm.25,18.59.14.07.07-.14-.14-.07Zm.07,1.66.14-.18-.07-.22-.14.25Zm.47-8.81v.14l.07-.18Zm.4-11.77-.14-.29,0,.18Zm-.14,1.26.29-.14-.14-.22Zm.33,11.44,0-.22-.29,0,.11.22Zm-.25-13.11.29,0,0-.25Zm0,2.38h.14v-.14h-.14Zm0,.65h.14l.07-.18h-.14Zm.22,16.35h.11l.07-.22h-.14Zm.18-11.59.07.18.25-.18Zm0,10.9h.14v-.11h-.14Zm0,2.74.14.07.07-.14-.14-.07Zm.4-19.39.18-.14-.11-.18Zm.22.54h.18l-.18-.14Zm.11,3.39h.14v-.14h-.14Zm.07-2.74.65-.36.11-.25h-.61l-.07.32Zm.07-1.08.14-.07-.14-.11Zm.14,6.75h.14v-.14h-.14Zm.54-8.59-.18-.14-.22.07Zm-.36,1.12.11.22.25.11-.11-.29.14-.22-.22.07Zm.29,18.74-.07-.25-.22-.14,0,.22Zm-.22-17.94h.14v-.11h-.14ZM1096,1016h.11l0-.22Zm.4-17.94h.18l-.18-.11Zm.07,10.14.18-.07v-.18l-.22.07Zm.5-10.79-.43-.29.18.33Z" transform="translate(-735.94 -829.49)"/><path class="cls-1" d="M1118.92,994.63l1.12-.14h.87l.32.14.4-.14.33.11.33,0,.22.14.22-.11.54,0,.25.29.47.22.69.9.36.76,0,.54-.07,1.23-.07.25.14.54v1l-.36.14v.29l-.47.43-.18.25-.36,0-1.12.47-.25,0-.22.18-1.19.51-.18-.14-.18.14-.11.25-.58-.11-.43-.29,0-.25-.14-.47.07-1.19-.11-.79-.18-.18h-.32l-.22-.32-.18.32-.58-.11-1.84.07-.11.18-.11.83-.22.5.14.22.07.33-.18.94.11.25.11,1.12h.33l0,.25.11.18.07-.29,1.08.29.72.33,1,.14.22.18.33,0,.22.18.18-.22.36.11.25.18h.58l.07.18.94.18.32,0,.07.25.22-.18.51.11.36.22.18-.07,1.08.61,0,.29-.11.18.25.18V1013l-.18.25.07.22.18.11-.14.25,0,.25.07,1.08-.07.29.14.94-.07.33-.14.22.14.65,0,.29-.22.54-1.23,1.23-.29,0-.25.11-.22.22h-.36l-.22-.14-.94.14h-.61l-.18-.14-.33.14h-.58l-.58-.14-.22.14-.25,0-.79-.25-.4.29-.25-.11-1.44,0-.29-.14-.5.22-.25,0-.11-.18-1.23.14-.29,0-.22-.11-.29.14-.54-.07-.43-.33-.47-.11-.4-.25-.33-.47-.29-.76.14-.22-.22-.33,0-.58.11-.51-.14-.22-.07-.32,0-.36.11-.29-.18-.29.07-.54.29-.54.07-.29,1.3-.69.58,0,.22-.22.87-.4,0,.22.43-.43.25-.14.25.11.22-.22.29-.07.47.14.36.4.07.5-.14.29.14.4-.11.36.11.9.47.25.58.11h.61l.54-.14.22.18.18-.18.33.18.5-.25.43-.33-.07-2.2.29-.07-.29-.33.07-.29-.11-.61.18-.25.33.36.14-.14-.4-.54-.22.29-.25-.07-.5-.29h-.58l-.72-.25-.18-.22-1.7-.18v-.4l-.11.11-.07.22-.29-.22-2.31-.4-2.42-.79v-.25l-.25-.47.14-.22-.22-.25v-1.12l.14-.4-.14-.29-.07-.58v-.87l.14-.29-.07-1,.07-.65,0-.58-.11-.25.14-.58,0-.9L1110,999l.22-.33-.14-.4.14-.36-.07-.29v-1l.22-.22v-.36l.14-.25.4-.4.11-.25.33-.07.61-.47h.61l.25-.14.61.11,2-.11.54.14.58-.07h1.8l.22-.11Zm-8.34,22.92-.25-.07.11.14Zm.14-18.12-.29-.07.11.22Zm-.07-.54h.14v-.11h-.14Zm.07,3.39h.11v-.11h-.11Zm.11-3.47h.14v-.11h-.14Zm.14,3.9h.25l-.11-.18Zm.14,16.46h.11l-.18-.07Zm0-12h.11V1007h-.11Zm.07,8.09.25.18-.22-.25Zm.58-11.16-.25-.07.11.18Zm-.25,13.68h.18l-.18-.14Zm.18-15h.22l-.22-.11Zm.14,15.67.11-.29-.11-.25-.07.32Zm.47-21.12-.18-.14-.29-.07.22.29Zm-.4,9.78h.14V1007h-.14Zm0,7.47.18-.11.11-.22-.25.11Zm.07-13.07.25.07-.14-.25Zm.58.36h-.51l.11.18h.25Zm-.25,13.43.07-.11-.11-.22-.22-.07,0,.29Zm-.22-14.73.29-.11h-.29Zm0,16,.22-.07.14-.14-.29-.07Zm.14-15.6h.14v-.29h-.14Zm.07-4.8h.22l-.22-.14Zm.14,16.86h.18l-.18-.14Zm.11-8.48h.14v-.11h-.14Zm.07,12.74.54-.22-.18-.22-.25.14Zm.07-12.42.22.07-.14-.18Zm.07,1.41.18-.4-.18-.07-.07.25Zm-.07,8.66.18.33h.29l-.07-.43-.22,0Zm.22-14.8.11-.47h-.18l0,.29Zm-.07,14h.11l0-.18Zm.4,2.2-.22-.47-.11.22.11.25ZM1113,998.1l.69.33.11-.25-.29,0-.43-.29Zm.54.69-.07-.18-.25,0,.11.22Zm-.25,5.85h.33l-.22-.14h-.11Zm0-7.8h.36v-.14l-.22,0Zm.29,18.59-.18,0-.11.18.36-.11v-.18Zm-.22-2.38.14.07.07-.14-.14-.07Zm.07-12.06.18-.07.11-.22-.22.07Zm.07,1.19h.22l-.22-.22Zm0,13.86.36,0,.18-.25-.25,0-.18.11Zm.07-16.28.18-.11v-.29l-.18.11Zm0,16.61.22.07.25,0,.22-.18.11-.25-.22-.07-.11.29-.25.07Zm0,.33h.14v-.11h-.14Zm.07-20.33h.11v-.14h-.11Zm0,9.86.11.36.14-.29.25-.18-.33-.07Zm0,7.94.25,0,.22.11,0-.4-.33.07Zm.07-17.51.29.14.22-.22H1114Zm0,10.25.25.14.29-.22.07.25h.33l-.14-.25-.29-.18h-.29Zm.14,8.34h.32l.22-.14-.54-.14Zm.25,2.64-.25.11v.14Zm-.18-19.93.47.14-.18-.25Zm0,1.88.22.07.18-.14-.22-.07Zm.32-.72h.54l-.14-.22-.25-.11Zm0,16.46.14.22.25.11v-.32l.11-.29-.18-.18,0,.29Zm.29,1.44-.11-.22,0-.22-.22.14v.22Zm-.07-19.5.07-.29-.22.11Zm-.07,19.86.11.18.22-.07-.07-.14Zm.14,1.91h.11l-.18-.07Zm.11-13.65h.14v-.14h-.14Zm.07-8.34h.14v-.14h-.14Zm.07.54.14-.25-.14-.14-.07.25Zm-.07,10.79.14-.11-.14-.11Zm.47,8.74.14-.29-.36-.11.29-.58,0-.29-.18-.22.07.4-.22.18-.07.25-.18.25.29.14Zm-.25-19v-.29l-.18.14Zm-.14-2.82h.14v-.14h-.14Zm.25,20.4,0-.29-.14-.18-.07.25Zm.4-16.93-.11-.22-.4-.25v.22l.22.18Zm-.47,7.58.11.22.25.07.11-.29-.22,0Zm0,11.26h.14v-.11h-.14Zm.29-2.46.25-.18-.25-.07Zm.14-9.86.18.07-.14-.22Zm.18,10.18.14-.4-.25.18Zm.25-17.58-.25-.22.11.25Zm-.25,16.86h.14v-.14h-.14Zm.4,1.19-.11-.18h-.22Zm.14,0-.14.33-.33,0,.14.22.25.07.58,0,.14.14-.11.25v.22l.29-.11.18-.58-.54,0-.22-.07-.11-.22.29-.07-.11-.18Zm-.29-8.59.29-.14-.07-.18-.25-.07Zm0-12.38.22-.14L1116,995Zm.47,2.78-.18-.25-.29-.14v.22l.18.18Zm-.25,8-.22-.29v.22Zm-.07-9.46.33.11v-.25Zm0,11.34.25-.11,0-.18Zm.29,10.18-.29-.07.11.18Zm-.14-8.59.07-.33-.07-.29-.11.36Zm0-3.54.14.07,0-.14Zm.32,2.46-.32-.18.07.18Zm-.25-13.65.14,0-.07,0Zm0,13.25.4.07-.18-.18Zm.18,1.08.18-.07.11-.22-.22-.11h-.18l.11.14Zm0-2.74h.14v-.14h-.14Zm.4,9.06v-.25l-.18.11Zm.14-9.24v-.29l-.25-.18.07.25Zm-.22-8.16.22.07-.14-.18Zm.43,20.61-.14-.18-.22-.11.11.22Zm-.22-22.42.14.07-.07-.18Zm.14,12.49.25-.07v-.14l-.25-.07Zm0,8.74h.25v-.14l-.14-.07Zm.07-20.47.33.18-.11-.22Zm0,8.84.25,0,.14-.29-.29,0Zm0,12.13.18-.14-.18-.18Zm.36-10,0-.25-.11-.36h-.22l.07.36Zm-.22-12.56.22.07-.14-.18Zm0,1.34.25-.11-.25-.07Zm.07-.33h.25l-.11-.18Zm0,9.6.18.18.29,0-.18-.25Zm.07.65h.11l0-.18Zm0,10.07.18.07v-.18h-.11Zm.11-19.17.14-.18-.14-.18Zm.29-1.34V996l-.22-.11Zm-.22,1.73.29,0,.07-.4-.25.11Zm0,10.25.14-.11-.14-.11Zm.14,7.55h.22l-.22-.14Zm.14-18.27.25-.07-.25-.29Zm.11,9.13h.36l-.18-.25-.29-.14.07.18Zm1.08,1.12.18-.07-.33-.47.33-.07-.25-.07-.14-.25-.14.11,0,.18-.54.18-.07-.14.22-.25-.33.07.11.47h.33l.14.18.4,0Zm-1.08,10.87.14.07.07-.14-.14-.07Zm.22-20.65,0-.29.61-.58-.22-.14-.29-.07.11.29-.36.54Zm-.07-1.48h.14v-.14h-.14Zm.33-.14h.36l-.18-.29-.25-.22.07.22Zm.14,1.88-.14-.22v-.11l0,.22Zm-.07,10.47.07-.29-.18.14Zm-.07-2.67h.14l.07-.22h-.14Zm.07,3.47.29-.14-.29-.25-.07.25Zm.29.14.18-.07-.14-.07Zm1.12-11.62-.22-.18-.33-.07-.4-.54-.07.61.29,0,.18.14.25-.11Zm-.61,8.34-.14-.22-.25-.11.11.25Zm-.07-10.47-.25-.18.07.22Zm-.18,10.94.33.14v-.29Zm.79.94-.07.25h-.54l.29.4-.29,0-.18.11.33.22.18-.22.29-.07-.07-.25.54-.22.22-.18-.29-.07Zm-.07-9.21-.33-.14-.33,0,.25.4.22-.07.25.07.14-.47-.22-.07Zm-.47,7.47h.29l-.22-.22Zm.4.79-.11-.25h-.22l.14.18Zm-.25,8.52.22.07-.14-.18Zm0,.54h.22l-.22-.11Zm.14-1.91.14,0-.07,0Zm0,2.53h.11l.07-.14-.18-.07Zm.11-20.07.4-.07-.11-.14L1120,996Zm0,10,.29.07-.11-.18Zm.61.87-.25-.14H1120l.18.25.22.14.25-.11.29.07-.07-.4Zm-.47-11.59.22.07-.14-.22Zm0,13.94.25.07-.18-.29Zm0,2.71h.14v-.11H1120Zm.22.87,0-.18-.18.07Zm0-15.52.25,0,.22-.14,0,.25.14.14-.07-.47-.33,0Zm0,1.34.18-.14-.14-.18Zm0,10.07.07.22.25,0-.07-.29Zm0,6.93h.11v-.14h-.11Zm.25-3.93.07-.33-.22.14Zm-.14,4.66.14-.14-.14-.18Zm.76-7,.18.14.07-.29-.07-.18-.22.22-.36,0-.22.14.14.32.36,0,.29-.07-.25,0-.07-.22Zm-.54-1,.22.07.22-.18.29,0-.14-.25-.25.11Zm0,2.67.14.4h.25l0-.25.18-.14-.29,0Zm.07,3.39.11-.22h-.18Zm0-3.86.14.18.18-.14-.07-.18Zm.11-10.4h.14v-.14h-.14Zm.07-4.48h.14l.07-.18h-.14Zm0,12,.4.25-.11-.22,0-.18.18.11.25,0-.07-.25-.4-.22-.11.25Zm0,5.7h.22l-.22-.18Zm.07-1.19h.14v-.14h-.14Zm.54-16.32h-.29l.14.18Zm-.29.58.18.07h.25l0-.25-.33-.07Zm0,20.61.14-.18-.14-.14Zm.14-2.67.14.07.07-.14-.14-.07Zm.07,3.32.33-.18-.14-.18-.22.11Zm.22-18.92.07-.25-.14-.14-.07.25Zm-.14,10.07.25.11V1009Zm.07-11.73h.25l.14-.29-.29.07Zm0,13.86.4.25,0-.33-.25-.14Zm.07,1h.11v-.11h-.11Zm.18.61v-.22h-.18Zm-.07,2h.14l-.14-.18Zm.14,1h.14l-.22-.07Zm0-16.32.22-.07.11-.22H1122Zm0,13.1.25,0-.25-.22Zm.4-2.85,0-.25-.11-.25-.18-.14.07.51Zm.07.47-.07-.25-.14-.14v.25Zm.14,3-.11-.18-.25-.07.11.18Zm-.22-5.2v-.4l-.11.22Zm-.07-11.52h.14v-.14h-.14Zm.14,15.31.25,0,.14-.14-.25,0Zm.4-2.6,0-.18-.25-.07Zm0-1.8.18-.18-.18-.22Zm0,1.48h.14v-.14h-.14Zm.14-9h.11v-.14h-.11Zm.11-3,.18,0,.11-.18Zm0,4h.22l-.14-.29Zm0,8.7.22,0,.07-.22-.25,0Zm.4-10-.11-.18-.22-.07.11.18Zm-.33,12.67.4.22-.07-.22-.18-.11Zm.14-2.45-.07.4.22.07.18-.14-.25-.14.25-.25Zm0,5.52.18-.14h-.11Zm.47-1.44.07-.36-.29-.07,0,.29Zm-.14-14.22v.14l.25-.07Zm.14-.79.25.07v-.22ZM1124,1014l.07-.25-.18.11Zm.22-16.32h.11v-.14h-.11Z" transform="translate(-735.94 -829.49)"/><path class="cls-1" d="M1129.68,954.33h0Zm.37-33.87a3.54,3.54,0,0,0-.3-1.16,3.13,3.13,0,0,1,.16-3.88,1.6,1.6,0,0,0,.14-.39,9.32,9.32,0,0,0-.17-1.84,16.6,16.6,0,0,1,0-4.33A49.47,49.47,0,0,0,1130,903l-.13-3.82a44.34,44.34,0,0,1,.07-5.56,1.57,1.57,0,0,0,0-.42,4.63,4.63,0,0,1-.6-2.14,6.56,6.56,0,0,1,.41-2.1,9.37,9.37,0,0,0,.24-1.7,28.21,28.21,0,0,0-.19-3.74,11.53,11.53,0,0,1,.07-4,11.12,11.12,0,0,0-.09-2.11,21.86,21.86,0,0,1-.1-4.37,4.21,4.21,0,0,0,0-1.14,8.6,8.6,0,0,1-.71-2,5,5,0,0,1,.75-3.42,2.33,2.33,0,0,0,.08-1,19.65,19.65,0,0,1-.13-4.33,10.39,10.39,0,0,0-.46-3.52c-.64-1.74-.58-3,.18-3.84a4.62,4.62,0,0,1,.35-2.83,21,21,0,0,0,.17-3.7l-.11-4.8-.18-1.48a8.82,8.82,0,0,1,.18-3.28,3.22,3.22,0,0,0,.09-.92l-.28-2.47a14.3,14.3,0,0,0-.48-2.28,6.47,6.47,0,0,0-.39-.91,6,6,0,0,0-.89-.5,2.85,2.85,0,0,0-1.09-.22,22.46,22.46,0,0,1-4.69-.17,10.79,10.79,0,0,0-2.53,0,3.12,3.12,0,0,1-3.44,0,2.08,2.08,0,0,0-.45-.19,2.5,2.5,0,0,0-.65.22,3.88,3.88,0,0,1-3.61,0,5.55,5.55,0,0,1-2.83-.06,5.12,5.12,0,0,0-2,.45,4.07,4.07,0,0,0-1.71,2c-.39,1.2-.66,2.2-.74,2.55l0,.06a3.22,3.22,0,0,1,.17,3.42,1.79,1.79,0,0,0-.09.44,1.19,1.19,0,0,0,.08.32,3.88,3.88,0,0,1,.31,3.1,1.51,1.51,0,0,0,0,.52,4.34,4.34,0,0,1,0,2.76,10.64,10.64,0,0,0-.06,2c.06,1.23,0,3.61-.08,5.4a12.74,12.74,0,0,0,.24,3.59c.22.54.88,2.41,0,3.73a5.21,5.21,0,0,0-.27,1.11,20,20,0,0,0,.2,3.66,9,9,0,0,1,.1,3.51v.18a41.22,41.22,0,0,1-.18,4.86,19.55,19.55,0,0,0,.07,4.34,7.8,7.8,0,0,1-.21,4.11,2.17,2.17,0,0,0-.15.64c.22,1.06.47,4.56.5,5l0,.25c.24,3.4,0,4.77-.41,5.44a5.44,5.44,0,0,0,.1,1,33.65,33.65,0,0,1,.42,5.12,18,18,0,0,0,.17,2.71,3.85,3.85,0,0,1-.33,3.12,4.64,4.64,0,0,1,0,2.76,4.48,4.48,0,0,0,.07,1.13,20.65,20.65,0,0,1-.16,5.32,8.42,8.42,0,0,0-.09,1.72,2.29,2.29,0,0,1,.95,1.44,2.21,2.21,0,0,1-.83,2.16c0,.55-.09,1.71-.09,3.32a33.74,33.74,0,0,0,.25,4.51,5.1,5.1,0,0,1-.13,3,6.35,6.35,0,0,0-.09,1.15,1.94,1.94,0,0,0,.07.51,2.59,2.59,0,0,1,.87,1.6,2.67,2.67,0,0,1-.46,1.89,18.47,18.47,0,0,0-.27,3.56v3.11c0,2.14.13,5,.28,6.45a24.11,24.11,0,0,0,.64,3.56,2.85,2.85,0,0,0,1.3.78,49,49,0,0,0,5.82,1l1.06.12a40.43,40.43,0,0,0,6.39.2c1.51-.13,3.45-.11,4.58.63a5.56,5.56,0,0,0,1.49-.11c1.29-.25,2.75-.62,3.35-.82a7.64,7.64,0,0,1,.36-2.3.8.8,0,0,0,0-.15,6.65,6.65,0,0,1-.08-3.64,7.71,7.71,0,0,0,0-2.42,27.24,27.24,0,0,1-.22-4.48,12.55,12.55,0,0,0-.1-2.38,3.59,3.59,0,0,1,.31-2.92,7.16,7.16,0,0,1-.32-1.94A6.79,6.79,0,0,1,1130,932a8.89,8.89,0,0,0-.08-1.89,29.66,29.66,0,0,1,0-5.55A37.17,37.17,0,0,0,1130.05,920.46ZM1251,842.55a3.35,3.35,0,0,0-.07-.7,42.3,42.3,0,0,1-.24-5.08,41.25,41.25,0,0,0-.25-5,2.89,2.89,0,0,0-.14-.5,16.32,16.32,0,0,1-1.73-1.15,4.48,4.48,0,0,0-2.08-.32,8.37,8.37,0,0,1-3.56-.2,25.11,25.11,0,0,0-3.4.1,79.3,79.3,0,0,1-8,.14l-1.94-.08c-2.29-.09-4.56-.11-5.18-.07a14.63,14.63,0,0,0-2.16.34,5.23,5.23,0,0,1-3-.05,16.7,16.7,0,0,0-2.72-.08c-1.63.05-4.71,0-7-.19l-.46,0c-2.24-.16-4-.21-4.29-.19a6.47,6.47,0,0,0-.87.32,3.81,3.81,0,0,1-3.16,0,6.19,6.19,0,0,0-1.52,0,16.46,16.46,0,0,1-4.69-.11,8,8,0,0,0-2.21-.13,17.77,17.77,0,0,1-3.12.45,10.13,10.13,0,0,0-1.85.26,3.82,3.82,0,0,1-2.91-.13,24.36,24.36,0,0,0-3.7-.22,43.9,43.9,0,0,1-5.13-.24,1.27,1.27,0,0,0-.31,0,10.61,10.61,0,0,1-2.62.27h0a3.59,3.59,0,0,0-1.55,1.08,18.86,18.86,0,0,0-1.54,2.11,16,16,0,0,0,0,3.08,25.51,25.51,0,0,1,0,5.27,22.06,22.06,0,0,0-.24,3.07,26.53,26.53,0,0,0,.62,4.33,12.83,12.83,0,0,0,.75,2.37,9.38,9.38,0,0,0,1.37.48,14.26,14.26,0,0,1,2.63,1,9.26,9.26,0,0,0,2,.15c1.16,0,2.89-.15,3.79-.27a10.91,10.91,0,0,1,4,.23,30.56,30.56,0,0,0,4.88.43l1.18,0c2.52.06,5.69,1.09,6.7,3.21.66,1.38,1.12,3.45.25,4.78a3.43,3.43,0,0,0-.34.71c0,.48.1,2.12.31,4.19l.55,5.39c0,.07,0,.13,0,.2v1.46a22.15,22.15,0,0,1-.41,3.69,2.66,2.66,0,0,0,0,1.16,3.56,3.56,0,0,1,.73,1.69,2.65,2.65,0,0,1-.71,2.24.31.31,0,0,0,0,.06,9.86,9.86,0,0,1-.21,2,2.08,2.08,0,0,0,.18.53,4.54,4.54,0,0,1,0,4h0s0,0,0,.05c.84,1.52.45,4.25.4,4.57a51.6,51.6,0,0,0-.34,6.1v7.57c0,2-.07,4.78-.19,5.87a6.23,6.23,0,0,0,0,1.46,11.31,11.31,0,0,1,.1,4,55.15,55.15,0,0,0-.14,6.12l.15,4.8a53.11,53.11,0,0,1-.07,5.83,1,1,0,0,0,0,.34,2.82,2.82,0,0,1,.66,3.53,6.86,6.86,0,0,0-.29,1.39,9.4,9.4,0,0,0,.15,2.55,6.23,6.23,0,0,1-.38,4,.85.85,0,0,0-.07.19,6,6,0,0,1,0,2.76,2.16,2.16,0,0,0,0,.71,10.9,10.9,0,0,1,.26,4.43,31.09,31.09,0,0,0-.17,3.83,4.34,4.34,0,0,0,.65,1.7,12.36,12.36,0,0,0,1.71,1.83,3.87,3.87,0,0,0,1,.6,5.9,5.9,0,0,0,1-.13,3.69,3.69,0,0,1,3,.45,5.06,5.06,0,0,1,2.49.62,22.56,22.56,0,0,0,4,.48l1.54.08a24.54,24.54,0,0,1,6.07.94,3.94,3.94,0,0,0,.83.24l.22-.14a3.73,3.73,0,0,1,1.85-.87,6.68,6.68,0,0,0,.57-1.34,14.85,14.85,0,0,0,.38-5,36.46,36.46,0,0,1-.29-5,23.73,23.73,0,0,1,.41-3.06,2.82,2.82,0,0,0,0-1.06c-.5-1.27-.36-4.67-.32-5.34a20.83,20.83,0,0,0-.1-4,9.52,9.52,0,0,1-.06-4.06,13.75,13.75,0,0,0,.16-3.2,14.94,14.94,0,0,1,.22-4.12,5.31,5.31,0,0,0,.13-1.48,12.27,12.27,0,0,1-.37-3.1,9.3,9.3,0,0,0-.18-1.9,6.46,6.46,0,0,1,.18-3.53,15.51,15.51,0,0,0-.08-4.12c-.35-2.66-.25-4.26.4-5.14a8.68,8.68,0,0,0,0-1.49,26.1,26.1,0,0,0-.47-3.12,5.33,5.33,0,0,1,.35-3.53,2.57,2.57,0,0,0,.09-1.23,7.94,7.94,0,0,1,0-3.77,14.67,14.67,0,0,0-.06-3.63c-.13-1.05-.38-3.58.13-4.81a1.43,1.43,0,0,0,0-.51,12.32,12.32,0,0,1-.48-3.36c0-1.07.19-3.43.38-5.11a12.24,12.24,0,0,0-.06-3.63,7,7,0,0,1-.16-4.22,12.28,12.28,0,0,0,.38-2.81,12.91,12.91,0,0,0-.39-2.86,5.86,5.86,0,0,1-.08-3.62,12.49,12.49,0,0,0,.4-1.67,22.73,22.73,0,0,1,.84-3.21,3.29,3.29,0,0,1,3.42-2.46,4.76,4.76,0,0,0,1,0,1.64,1.64,0,0,0,.41-.14,2.86,2.86,0,0,1,3.47.2,2.3,2.3,0,0,0,.37.21,16,16,0,0,0,2.31,0l2.34-.13h.17l7.8.24a15,15,0,0,0,3.11-.18,16,16,0,0,1,1.49-1.54,8.77,8.77,0,0,0,.81-3.21,15.74,15.74,0,0,0,0-3.35,3.28,3.28,0,0,1,.13-3.34A1.45,1.45,0,0,0,1251,842.55Zm-193.3,62.84a21.52,21.52,0,0,1,0-3.87,2.48,2.48,0,0,0-.23-.58,3.57,3.57,0,0,1,.19-4,5.35,5.35,0,0,1,.08-2,2.18,2.18,0,0,0-.07-.51,22.37,22.37,0,0,1-.19-5l.18-3.31-.25-7.55a45.12,45.12,0,0,1,.08-5.54,4.1,4.1,0,0,0,0-1,16.15,16.15,0,0,1-.06-3.86,19.36,19.36,0,0,0,0-2.61,7.16,7.16,0,0,1,.08-2.78,1,1,0,0,0,0-.31,4.93,4.93,0,0,1-1-2.22,2.66,2.66,0,0,1,.63-2.11,2.56,2.56,0,0,1,.28-.27,6.3,6.3,0,0,1,0-1.17s0-.07,0-.11a3.29,3.29,0,0,1-.16-3,6.24,6.24,0,0,0,.19-1.16c0-.57,0-2.37-.1-4a19.9,19.9,0,0,1,0-4.17c.06-.39.13-2,.13-4.17v-4.53a10.88,10.88,0,0,0-.53-3.64,15.82,15.82,0,0,0-2.29-1.57,3.73,3.73,0,0,0-1.86-.43,22.84,22.84,0,0,1-3.24.5,7.49,7.49,0,0,1-3-.4,22,22,0,0,0-3.55-.14,36.93,36.93,0,0,1-4.7-.12,3.5,3.5,0,0,0-1,.24,6.15,6.15,0,0,1-2.77.45,3.28,3.28,0,0,1-.87.52,7.56,7.56,0,0,1-1.1,2.32,2.21,2.21,0,0,0-.33,1.12,14,14,0,0,1,.23,3.28,5,5,0,0,0,0,1,3.54,3.54,0,0,1-.26,3,7.26,7.26,0,0,0-.15,1.92,50.41,50.41,0,0,1-.19,5.51,24.75,24.75,0,0,0-.13,3.13,26.27,26.27,0,0,1,.24,4,12.56,12.56,0,0,0,.21,2.45,3.23,3.23,0,0,1,0,3.28,4.2,4.2,0,0,0-.06,1.33,11.33,11.33,0,0,1-.25,3.78,7.48,7.48,0,0,0,0,2.36,12.78,12.78,0,0,1,0,3.91,15.71,15.71,0,0,0,.12,3.5,13.8,13.8,0,0,1-.08,4.73,13.15,13.15,0,0,0,.09,3c0,.35.43,3.47-.11,4.88a18.66,18.66,0,0,0-.33,3.25c-.07,2.42-.43,4-1.06,4.72a2.35,2.35,0,0,1-2.45.77,2.29,2.29,0,0,1-1.59-1.9,12.15,12.15,0,0,0-.64-1.42,5.72,5.72,0,0,0-.84-1.22,3.7,3.7,0,0,1-1.46-2.93,5.32,5.32,0,0,0-.5-1.25,9.76,9.76,0,0,1-.87-2.08,2.93,2.93,0,0,1-1.6-1.28,2.64,2.64,0,0,1-.3-1.9,5.13,5.13,0,0,0-.53-1.35,8.82,8.82,0,0,1-1.19-3.48,1.3,1.3,0,0,0-.2-.29,5.15,5.15,0,0,1-1.38-2.67A19.54,19.54,0,0,0,1016,874a23.28,23.28,0,0,1-1.55-3.64c-1.22-.86-1.63-2.88-1.75-3.74A10.47,10.47,0,0,0,1012,864a5.6,5.6,0,0,0-1.15-1.4,5.09,5.09,0,0,1-1.81-3.8,3.78,3.78,0,0,0-.09-.82,8.06,8.06,0,0,1-.91-2.51,4.29,4.29,0,0,0-.68-1.47,13.91,13.91,0,0,1-2-3.52,10.69,10.69,0,0,0-1.24-2.33,4.71,4.71,0,0,1-1.24-3.12,5,5,0,0,0-.38-1.16,10.25,10.25,0,0,0-.83-1.49,8,8,0,0,1-1.25-2.62,31,31,0,0,0-1.56-3.64,26.66,26.66,0,0,0-1.93-3.36,8.74,8.74,0,0,0-2-1.53,9.41,9.41,0,0,0-2.48-.92,7.16,7.16,0,0,0-1.59,0,4.55,4.55,0,0,1-3-.5l-.12,0a36,36,0,0,1-4.3.21,19.71,19.71,0,0,0-4,.35,4.17,4.17,0,0,1-3.91-.51,11.4,11.4,0,0,0-1.34.33,19.3,19.3,0,0,1-2.14.54,2.89,2.89,0,0,1-1.89,1.52,23.36,23.36,0,0,1-.22,5,21.28,21.28,0,0,0-.25,3.25,6.41,6.41,0,0,1,.14,2.72,7.78,7.78,0,0,0-.09,1.4,2.69,2.69,0,0,0,.16.57,3.13,3.13,0,0,1-.1,2.93,4.71,4.71,0,0,0-.06,1.07,13,13,0,0,1-.13,2.89.81.81,0,0,0,.05.22,3.77,3.77,0,0,1,.32,3.13,24.08,24.08,0,0,0-.34,3,9.14,9.14,0,0,0,.05,1.86,2.45,2.45,0,0,1,.56.93,3.3,3.3,0,0,1-.44,2.74,8.94,8.94,0,0,0-.18,2.63c.11,1.6.13,4.65.06,6.95l-.12,3.71a39.32,39.32,0,0,0,.12,5.29,8.64,8.64,0,0,1,0,2.89,3,3,0,0,1,.64,2.3,2.5,2.5,0,0,1-.52,1.17,3.61,3.61,0,0,1-.29,1.86,6.16,6.16,0,0,0,0,1.12,18.54,18.54,0,0,0,.41,2.73,5.67,5.67,0,0,1-.17,3.63,6.9,6.9,0,0,0-.15,1.38,5.47,5.47,0,0,0,.15,1.28,3.47,3.47,0,0,1,.14,3,14.06,14.06,0,0,0-.41,1.81,15.05,15.05,0,0,0-.17,2.74,5.08,5.08,0,0,0,.3,1.43,4.07,4.07,0,0,1,.14,3.46,3.11,3.11,0,0,1,.57,2.07,2.76,2.76,0,0,1-.72,1.63,36.69,36.69,0,0,1,.18,3.94,20.18,20.18,0,0,0,.16,2.86,3.47,3.47,0,0,1-.11,2.77s-.06.2-.11.43l.14.09a2.21,2.21,0,0,1,1,2,2.38,2.38,0,0,1-1.15,1.82,9.47,9.47,0,0,0,0,1.07c.06,1,0,3.23-.1,4.77a21.31,21.31,0,0,0,.05,3.8,5.8,5.8,0,0,0,.38,1.18,2.23,2.23,0,0,1,.16,2.31,2.26,2.26,0,0,1-.65.78c.1.48.18,1,.23,1.39a14.19,14.19,0,0,0,.56,2.41,4.33,4.33,0,0,0,.42.86,2.38,2.38,0,0,0,.39.09,7.1,7.1,0,0,1,1.73.36,3.44,3.44,0,0,1,3.39.46,1,1,0,0,0,.23.08,4.73,4.73,0,0,0,.74-.21c1.17-.5,4.65-.45,5.69-.42l2.35.07a42.16,42.16,0,0,0,6.7-.39,8.69,8.69,0,0,0,1.63-.43,3.93,3.93,0,0,1,1.41-1.89,1,1,0,0,0,.15-.16c0-.48,0-1.76-.05-3.5a48.3,48.3,0,0,1,.1-6.43,7.45,7.45,0,0,0-.15-2.66,4.87,4.87,0,0,1-.15-4.16,11.14,11.14,0,0,0,.2-3.2,29.92,29.92,0,0,1,0-4.66,13.31,13.31,0,0,0,.08-2.23,7.51,7.51,0,0,0-.24-1.45,7.7,7.7,0,0,1-.32-2.91,4.53,4.53,0,0,0-.05-1.07,5.37,5.37,0,0,1,0-3.18,29.36,29.36,0,0,0,.29-4.66v-3.86c0-2.09-.08-3.74-.13-4.15a5.12,5.12,0,0,1,.13-2.58,5.18,5.18,0,0,0-.06-1.42,12.35,12.35,0,0,1,0-3.81,33.23,33.23,0,0,1,1.31-4.5c.79-2.15,2.13-2.52,2.87-2.55a2.91,2.91,0,0,1,2.71,1.87,12.76,12.76,0,0,0,1.12,2,6.61,6.61,0,0,1,1.38,3.06,7.85,7.85,0,0,0,1.08,2.32,8.3,8.3,0,0,1,1.49,3.54,2.12,2.12,0,0,0,.36.65,5.45,5.45,0,0,1,1.32,2.77,8.63,8.63,0,0,0,.88,1.58,8.85,8.85,0,0,1,1.57,3.72,5.63,5.63,0,0,1,1.18,1.45,18.55,18.55,0,0,1,.93,3.06,22.75,22.75,0,0,0,1.62,4.16,23.31,23.31,0,0,0,1.9,3.17,8.35,8.35,0,0,1,1.58,3.54,12.8,12.8,0,0,0,.79,2.53,13.06,13.06,0,0,0,1.26,2.1,4.82,4.82,0,0,1,1.06,3.53,7.25,7.25,0,0,1,.92,1.6,2.48,2.48,0,0,0,.37.55,3.77,3.77,0,0,1,1.08,2.91,2.35,2.35,0,0,0,.27.7c.48.78,1.6,3.14,2.41,5l.33.74c.86,1.93,1.61,3.42,1.84,3.77a6.09,6.09,0,0,1,1,2.54,7.68,7.68,0,0,0,1.5,1.94,6,6,0,0,0,1.14.88,3.92,3.92,0,0,1,2.76.64,17.4,17.4,0,0,0,3.84.45l2.91.08a49.12,49.12,0,0,0,5.27-.08,10,10,0,0,1,1.32-.09,4.13,4.13,0,0,1,2.05.43,2.27,2.27,0,0,0,.34.12,24.56,24.56,0,0,0,2.92-.46,23.89,23.89,0,0,0,3.68-1,1.24,1.24,0,0,0,.28-.53,14.2,14.2,0,0,0,.08-2.27,5.82,5.82,0,0,0-.22-1.17,3.72,3.72,0,0,1,.22-3.1,6.42,6.42,0,0,0,0-1.8,21.92,21.92,0,0,1,0-4.81h0a6.49,6.49,0,0,0,0-2.09,5.5,5.5,0,0,1-.05-3.78,21.73,21.73,0,0,0,.14-4.55l-.15-2.77a34.66,34.66,0,0,1,.09-6,9.27,9.27,0,0,0,0-2.53,17.69,17.69,0,0,1,0-4.43A29.44,29.44,0,0,0,1057.67,905.38Zm-82.19-75.64h0ZM814.91,931.53a6.3,6.3,0,0,0-.43-1.65c-.07-.17-.55-1.38-.81-2.32a8.11,8.11,0,0,1-1.69-.79,5.44,5.44,0,0,1-1.45-1.47h-.11a11.53,11.53,0,0,1-4.85-1.23L803.22,923l-2.53-.92a31.4,31.4,0,0,0-3.79-1.13,8,8,0,0,1-3.06-1.23,3.12,3.12,0,0,0-1.1-.12,7.34,7.34,0,0,0-2.22.6,5.1,5.1,0,0,0-.93.64,12.27,12.27,0,0,0,0,2.44,54.11,54.11,0,0,1,.09,6.73c-.11,2-.33,4.43-.5,5.44a6.21,6.21,0,0,1-2.22,3.78,7.8,7.8,0,0,1-4,1.14,5,5,0,0,0-1.41.18,3.78,3.78,0,0,1-3.27.26,8,8,0,0,0-1.56-.08,7.14,7.14,0,0,0-1.67.26c-1.3.65-3.59.14-4,0-1.55-.38-3.3-1.45-3.7-3a4.27,4.27,0,0,1,.5-3.39c.14-.2.73-1.29,1.4-2.71a11.79,11.79,0,0,1,2.36-3.58h0a5.36,5.36,0,0,1,.81-2.16,2.21,2.21,0,0,0,.12-.41,7,7,0,0,1,1.6-3.06,18.4,18.4,0,0,0,1.93-3.44,18.33,18.33,0,0,1,2.64-4.42,3.94,3.94,0,0,0,.72-1,4.4,4.4,0,0,1,1.49-2.4,3.67,3.67,0,0,0,.38-1,5.48,5.48,0,0,1,2-3.3l0,0a1.43,1.43,0,0,0,0-.19c-.5-1.36.28-3,1.89-3.94a6,6,0,0,0,1-.77,13.92,13.92,0,0,0,.61-1.67,8,8,0,0,1,1.59-3c.18-.21,1.16-1.63,2.33-3.51l1.41-2.28a23.18,23.18,0,0,0,1.72-3.19,4.23,4.23,0,0,1,1.69-2.89,4.66,4.66,0,0,0,1-1.58,18.08,18.08,0,0,1,2.36-4.23,7.81,7.81,0,0,0,.9-1.48,4.9,4.9,0,0,1,1.4-3.12,29.64,29.64,0,0,0,2.39-3.35,13.35,13.35,0,0,0,1.09-2.07,2.81,2.81,0,0,1,1.64-2.69,2.67,2.67,0,0,0,.53-.37,20,20,0,0,0,1-2,12.26,12.26,0,0,1,2.49-3.61,1.45,1.45,0,0,0,.34-.52,4.25,4.25,0,0,1,1.25-3,3.53,3.53,0,0,0,.47-.57,39.05,39.05,0,0,0,.91-4.06l.27-1.5a14.77,14.77,0,0,0,.27-4.06,4.88,4.88,0,0,1,.1-4,.75.75,0,0,0,.06-.21,4.2,4.2,0,0,1-.07-2.88,13.5,13.5,0,0,0,.36-2,6.59,6.59,0,0,0,0-1.38,12.75,12.75,0,0,1-.4-3.64,12,12,0,0,0-.11-1.73,7.72,7.72,0,0,0-.81-.51,14.76,14.76,0,0,0-3.42-.82,29.57,29.57,0,0,0-5.45-.08,16.1,16.1,0,0,1-5.31-.28,2.45,2.45,0,0,0-1-.08,3.17,3.17,0,0,1-3.46-.21.94.94,0,0,0-.32,0,22.39,22.39,0,0,1-4.55.29,24.71,24.71,0,0,0-3.36.18,3.58,3.58,0,0,1-2.82-.11,11.85,11.85,0,0,0-1.47-.28,5.44,5.44,0,0,0-2,.18,5.08,5.08,0,0,1-3.46.11,6.85,6.85,0,0,0-1.8.25c-1.11.29-3.33.58-4.71-.15a6.83,6.83,0,0,0-2.33,0,22.12,22.12,0,0,1-6.09-.1,34.46,34.46,0,0,0-6.43-.22l-1.58.1c-2.27.15-6,.18-8.21.08l-1,0a32.29,32.29,0,0,0-3.62,0,2.07,2.07,0,0,0-.2.25,3.93,3.93,0,0,1-2.75,1.6,2.6,2.6,0,0,0-.48.71,5,5,0,0,0-.42,2.08,16.78,16.78,0,0,1,.22,3.58,11.94,11.94,0,0,0,.15,2.45,6,6,0,0,1-.36,3.57,1.31,1.31,0,0,0-.1.39,43.22,43.22,0,0,1,.22,5.09v2.08a46.19,46.19,0,0,0,.25,5.3,8.29,8.29,0,0,1-.06,3.3,10.42,10.42,0,0,0,.08,2.13,7.12,7.12,0,0,0,.73,2.38,20.48,20.48,0,0,0,3.67,2.45,49.1,49.1,0,0,0,6.93,3l1.74.56a16.86,16.86,0,0,0,2.82.69,2.16,2.16,0,0,1,1.42-.18,2.39,2.39,0,0,1,1.74,1.64,1.91,1.91,0,0,0,.52.21,9.47,9.47,0,0,1,2.74,1.16,2.11,2.11,0,0,0,.48-.11c.59-.21,1.14-.45,1.49-.62a15.28,15.28,0,0,0,.59-2.72,12.46,12.46,0,0,0-.06-4.19c-.24-.6-.9-2.59-.07-4a16,16,0,0,0,.32-3c.11-3.57,1.26-4.29,1.64-4.53a2.26,2.26,0,0,1,1.09-.34,4.67,4.67,0,0,1,1-1c1.12-.82,3.13-.55,4.22-.32a12.2,12.2,0,0,0,2.75.27,4.48,4.48,0,0,0,1.16-.28,3.19,3.19,0,0,1,3-.22h.19c1.67-.24,3.56,1.43,4.1,1.95,1.65,1.58,2,3.91.85,5.4a4.19,4.19,0,0,0-.63,1.15,4.41,4.41,0,0,1-1.29,2.59,19.35,19.35,0,0,0-1.25,2.15,21.69,21.69,0,0,1-2,3.26,1.53,1.53,0,0,0-.14.38,9.13,9.13,0,0,1-.51,2.12,12.85,12.85,0,0,1-2.2,2.9,5.28,5.28,0,0,0-.84,1.12,5.44,5.44,0,0,1-1.46,3.1,10.35,10.35,0,0,0-1.36,2.06,23.71,23.71,0,0,1-1.77,3.08,11.08,11.08,0,0,1-2,2.19,14.8,14.8,0,0,1-1.48,3.71,10.67,10.67,0,0,0-.89,2c-.08,1.35-1.42,3-2.22,3.84a26.18,26.18,0,0,0-3.12,4.93l-2.1,4.3a38.54,38.54,0,0,1-2.91,5.14,6.77,6.77,0,0,0-.87,1.47,5.33,5.33,0,0,1-1.41,2.29,4.33,4.33,0,0,0-.48,1,15.93,15.93,0,0,1-1,2.34,2.39,2.39,0,0,1-1.78,3.27,7,7,0,0,1-1.26,1.94,3.31,3.31,0,0,0-.62,1.05,9.91,9.91,0,0,1-.74,2.31,7.2,7.2,0,0,1-1.36,1.82,1.56,1.56,0,0,0-.11.53,6.22,6.22,0,0,1-1.55,3.8,28.28,28.28,0,0,0-2.37,3.54,43.19,43.19,0,0,0-2.12,4.11,3.41,3.41,0,0,0-.23.9,2.33,2.33,0,0,1-.23,2.28,2.19,2.19,0,0,1-.8.68,12.2,12.2,0,0,0-.5,1.86,51.54,51.54,0,0,0-.7,7v.68a25.73,25.73,0,0,0,.14,3.87,6.15,6.15,0,0,1,.31,3.06,3.27,3.27,0,0,0,0,1.07,5,5,0,0,1,.31,2.9,10.71,10.71,0,0,1-.67,2.11c.19.33.78,1.21,1.51,2.18a5.26,5.26,0,0,0,3.37.38,33.28,33.28,0,0,1,5.8-.63,6.27,6.27,0,0,0,2-.3,18.74,18.74,0,0,1,3.2-.81,8.2,8.2,0,0,0,2.06-.68,3.55,3.55,0,0,1,3.64-.13,12.13,12.13,0,0,0,2.34-.14,12.53,12.53,0,0,0,2.66-.63,3.27,3.27,0,0,1,4.16,0,1.08,1.08,0,0,0,.6,0,14,14,0,0,1,4.26-1.07,16.08,16.08,0,0,0,3.72-.92,8.82,8.82,0,0,1,4.69-.64,17.41,17.41,0,0,0,2.53.36,21,21,0,0,0,4.17-.64,19.71,19.71,0,0,1,5.11-.68,20.66,20.66,0,0,0,3.58-.29,27.81,27.81,0,0,1,4-.36,1,1,0,0,0,.26-.13,3.92,3.92,0,0,1,3.25-.84,18.82,18.82,0,0,0,2.71-.06c.11,0,2.43-.18,3.58-.12a2.92,2.92,0,0,1,3.21-.58,9.08,9.08,0,0,0,1.42-2.06c.65-1.27,1.2-2.51,1.29-2.8a1,1,0,0,0,0-.24,11.7,11.7,0,0,1-.48-2.81,45.48,45.48,0,0,1,.2-5.07c.17-1.84.22-3.26.2-3.53a3.62,3.62,0,0,0-.31-.78,3.58,3.58,0,0,1,0-3.55,4,4,0,0,1,.43-2.43,2,2,0,0,0,.14-.52,8.61,8.61,0,0,0-.29-1.5A7.63,7.63,0,0,1,814.91,931.53ZM927,835.17a7,7,0,0,0-.06-1.5c0-.07-.18-1.35-.21-2.39-.69-.21-1.81-.52-3.09-.86a33.72,33.72,0,0,0-4.48-.92,4.85,4.85,0,0,0-1.34.11,7.35,7.35,0,0,1-3.55.23,25.93,25.93,0,0,0-4.25-.07,18.84,18.84,0,0,0-2.94.36,3.5,3.5,0,0,1-3,0,7.91,7.91,0,0,0-1.65-.24,8.37,8.37,0,0,0-1.66.07,4,4,0,0,1-3-.17,2.33,2.33,0,0,0-.52-.16,8.44,8.44,0,0,0-1.36.4,4.76,4.76,0,0,1-4.06-.19,2.07,2.07,0,0,0-.68-.06,46,46,0,0,1-5.59,0l-1.38-.05a18.74,18.74,0,0,0-3,.09,2.67,2.67,0,0,1-2.27.59,2.76,2.76,0,0,1-3.29-.39,2.52,2.52,0,0,0-.51-.28,2.8,2.8,0,0,0-.81-.07,6.41,6.41,0,0,0-1.2.25,4.7,4.7,0,0,1-2.55.16c-.4-.06-2.06-.13-4.18-.13h-.85a45.81,45.81,0,0,1-4.84-.19,4.34,4.34,0,0,0-1,.4,11.84,11.84,0,0,0-1.64,1.07,4.17,4.17,0,0,0-.56.77,3.86,3.86,0,0,0-.28.78c0,.16,0,1.24.19,2.73a11.86,11.86,0,0,1-.23,4.37,4.23,4.23,0,0,0,.08,1.34,6.73,6.73,0,0,1-.15,3.71,4.44,4.44,0,0,1,0,2.67,9.78,9.78,0,0,1,.71,2.69,13.37,13.37,0,0,1-.12,3.59,8.26,8.26,0,0,0,0,2.33,9,9,0,0,1-.27,4,8.23,8.23,0,0,0-.37,1.53,1.74,1.74,0,0,0,.08.39,5.37,5.37,0,0,1,.15,3.15,15.19,15.19,0,0,0-.24,2.55,14.76,14.76,0,0,0,.56,3.3c.95,3.2.18,4.17-.08,4.49a2.44,2.44,0,0,0-.19.47s0,.18.07.26a5,5,0,0,1-.06,3.58,21.5,21.5,0,0,0-.16,4.38,19.29,19.29,0,0,1-.21,5.37,5.47,5.47,0,0,1,.38,1.85,2.31,2.31,0,0,0,.11.38,4.13,4.13,0,0,1-.29,3.32,16.1,16.1,0,0,0,0,4l.06.52a47.73,47.73,0,0,1,.34,5.81,22.17,22.17,0,0,1-.53,3.35,8.2,8.2,0,0,0,0,2.67,24.89,24.89,0,0,1,.4,3.77c0,1-.21,3.06-.4,4.54a9.46,9.46,0,0,0,0,2.73,3.84,3.84,0,0,1,.28,3.33,3.28,3.28,0,0,0-.19.69,12.06,12.06,0,0,0,.09,1.82,11.48,11.48,0,0,1-.25,3.73,2,2,0,0,0,0,.94,4.51,4.51,0,0,1,.41,3.4,6,6,0,0,0-.1,1.47,9.16,9.16,0,0,1-.4,3.24h0c.88,1.34.57,3.58.45,4.27a9.82,9.82,0,0,0,.14,3.38,11.32,11.32,0,0,1,.2,4.73,5.87,5.87,0,0,0-.14,1.2l.13.17a3.32,3.32,0,0,0,.8,0c.42,0,.93-.05,1.43-.05a17.94,17.94,0,0,1,2,.1,4,4,0,0,0,1,0,3.45,3.45,0,0,1,2.6-.13,7,7,0,0,0,1.22,0,7.43,7.43,0,0,0,1.42-.23,3.48,3.48,0,0,1,2.85-.07,20.79,20.79,0,0,0,3.05.23c1.65,0,4.28-.08,5.87-.24a18.92,18.92,0,0,0,3.22-.54c1.09-.54,4.55-.73,5.59-.77l.46,0a56,56,0,0,0,5.88-.53,8.77,8.77,0,0,1,4.06,0,2.66,2.66,0,0,0,.8.11,3,3,0,0,0,.86-.22,5.78,5.78,0,0,1,3.5-.31,8.65,8.65,0,0,0,2.64-.17,9,9,0,0,1,4.06-.07,5.72,5.72,0,0,0,1.42,0c1-.16,3.53-.36,5.82-.46l3.85-.17a7.7,7.7,0,0,0,3.63-1c.5-.69.91-1.33,1.09-1.65a.93.93,0,0,0,0-.22c-.57-1.47-.06-4.13,0-4.43a10.32,10.32,0,0,0,.23-2,3.6,3.6,0,0,1,0-2.17,7.83,7.83,0,0,0-.45-1.49,5,5,0,0,1-.22-3.78,2.38,2.38,0,0,1,.7-.84,2.26,2.26,0,0,0,0-.44,3.25,3.25,0,0,0-.14-.94,5.53,5.53,0,0,1-1-1.3,13.72,13.72,0,0,0-2.85-.46l-.62,0a31.37,31.37,0,0,0-3.6-.09,8.24,8.24,0,0,1-3.62.1,16.63,16.63,0,0,0-3.41,0,19.1,19.1,0,0,1-3.64.15,6.88,6.88,0,0,0-2,.2,4.82,4.82,0,0,1-3.42,0,2.65,2.65,0,0,0-.66-.18,3.37,3.37,0,0,0-.78.08h0s0,0,0,0a2.45,2.45,0,0,1-2.05,1.2,2.32,2.32,0,0,1-1.57-.59,5,5,0,0,0-1.11.07,46.57,46.57,0,0,1-6.61.35h-.63c-2.81,0-5.88-1.34-6.32-3.77a8.35,8.35,0,0,0-.44-1.61,2.92,2.92,0,0,1-.34-3.19,17.37,17.37,0,0,0,.29-2.89,33.14,33.14,0,0,1,.35-4.18s0-.08,0-.13a14.2,14.2,0,0,1-.22-4.59c.11-1.83.13-3.22.11-3.48a2.83,2.83,0,0,0-.16-.57,3,3,0,0,1,.31-3.17,9.45,9.45,0,0,1,1.87-1.57,10.74,10.74,0,0,1,3.95-1.25l2.07-.26h.17l5.58-.2a28.06,28.06,0,0,1,4.7.09l.18-.14a3.8,3.8,0,0,1,4.41-.5,9.61,9.61,0,0,0,3,.07c1.86-.21,3.78-.5,4.4-.64a8.43,8.43,0,0,0,1-.3,13.67,13.67,0,0,0,.65-2.07,23.61,23.61,0,0,0,.61-3.78,6.58,6.58,0,0,0-.15-1.44,3.71,3.71,0,0,1,.2-3h0a31.72,31.72,0,0,1-.32-3.84,13.1,13.1,0,0,0-.48-3.27,5.28,5.28,0,0,0-.42-.75,3.5,3.5,0,0,1-2.35-.46,7.29,7.29,0,0,0-1.5.07,17.69,17.69,0,0,1-4.34.07,20.94,20.94,0,0,0-3.73,0,23.9,23.9,0,0,1-3.58.1,3.12,3.12,0,0,1-3.54.45,9,9,0,0,0-2-.15c-.64,0-1.8,0-2.71,0a2.23,2.23,0,0,1-1.58,1,2.2,2.2,0,0,1-2.22-1.22l-.15-.18-.24-.06a3.38,3.38,0,0,1-2.62-1.68c-.12-.23-.49-.94-.59-4.59a20.9,20.9,0,0,0-.46-4.07,7.21,7.21,0,0,1,0-4.09,3.45,3.45,0,0,0,0-3.07,5.55,5.55,0,0,1-.07-3.55,7.56,7.56,0,0,0-.1-2,5.66,5.66,0,0,1,2.4-5.41,11.67,11.67,0,0,1,3.32-1.6,6,6,0,0,1,2.39.23h0a4.77,4.77,0,0,1,2.48-.47,2.7,2.7,0,0,0,.74-.11,3.23,3.23,0,0,1,2.94.44,18.34,18.34,0,0,0,3.21.12h.44a37.15,37.15,0,0,0,4.08-.3,6.4,6.4,0,0,1,3.36.13,2.49,2.49,0,0,0,.85.09c1.17-.54,3.72-.53,5.71-.41l2.71.16a24.67,24.67,0,0,0,3.71,0,12.6,12.6,0,0,1,3.37-.69,7.9,7.9,0,0,0,1.52-.28,10.25,10.25,0,0,0,.56-1.13,15.18,15.18,0,0,0,.71-3,28.33,28.33,0,0,0-.18-5.39C926.51,837,926.77,835.72,927,835.17ZM901.3,930.9h0Z" transform="translate(-735.94 -829.49)"/></svg>