<svg id="Calque_1" data-name="Calque 1" xmlns="http://www.w3.org/2000/svg" xmlns:xlink="http://www.w3.org/1999/xlink" viewBox="0 0 348.96 379.04"><defs><style>.cls-1{fill:none;}.cls-2{clip-path:url(#clip-path);}.cls-3{clip-path:url(#clip-path-2);}</style><clipPath id="clip-path" transform="translate(0 -0.96)"><rect class="cls-1" width="348.96" height="381"/></clipPath><clipPath id="clip-path-2" transform="translate(0 -0.96)"><rect class="cls-1" width="349" height="381"/></clipPath></defs><title>package</title><g class="cls-2"><g class="cls-3"><path d="M183.76,355V176.32L252,143.2v46.72a9.6,9.6,0,0,0,19.2,0V133.84l58.4-28.32V284.16ZM19.2,105.84l145.36,70.48V355L19.2,284.48Zm155,53.76L31.44,90.4l68.16-33,142.72,69.2Zm0-138.4L316.88,90.4l-52.56,25.52L121.6,46.72ZM348.8,90.32a9.93,9.93,0,0,0-1-4.24A9.27,9.27,0,0,0,341.36,81l-163-79a9.66,9.66,0,0,0-8.4,0L5.44,81.68A9.63,9.63,0,0,0,0,90V290.56a9.52,9.52,0,0,0,5.44,8.64L170,379c.08,0,.08,0,.16.08a2.91,2.91,0,0,1,.72.32c.08,0,.16.08.32.08l.72.24c.08,0,.16.08.24.08.24.08.56.08.8.16h.24c.32,0,.72.08,1,.08a4.7,4.7,0,0,0,1-.08h.24a2.91,2.91,0,0,0,.8-.16c.08,0,.16-.08.24-.08l.72-.24c.08,0,.16-.08.32-.08a2.82,2.82,0,0,0,.72-.32c.08,0,.08,0,.16-.08l165-80a9.68,9.68,0,0,0,5.44-8.64V90.56C348.8,90.48,348.8,90.4,348.8,90.32Z" transform="translate(0 -0.96)"/></g></g></svg>