<svg id="Calque_1" data-name="Calque 1" xmlns="http://www.w3.org/2000/svg" xmlns:xlink="http://www.w3.org/1999/xlink" viewBox="0 0 391.2 288.53"><defs><style>.cls-1{fill:none;}.cls-2{clip-path:url(#clip-path);}.cls-3{clip-path:url(#clip-path-2);}</style><clipPath id="clip-path" transform="translate(0 -0.47)"><rect class="cls-1" x="0.06" width="391.94" height="290"/></clipPath><clipPath id="clip-path-2" transform="translate(0 -0.47)"><rect class="cls-1" width="392" height="290"/></clipPath></defs><title>previous</title><g class="cls-2"><g class="cls-3"><path d="M157.92,171.72a9.83,9.83,0,0,0-9.84,9.84v52.56L25.28,132.44,148.16,31.08V83.64a9.85,9.85,0,0,0,9.68,9.84C298.64,94.84,351.12,180.68,366.4,241,305.76,171.8,215,171.72,157.92,171.72Zm185.6-18.56c-28.32-34.48-81.68-75.52-175.76-79V10.28a9.79,9.79,0,0,0-16-7.6L3.6,124.84A9.84,9.84,0,0,0,0,132.36a9.66,9.66,0,0,0,3.52,7.52L151.68,262.52a9.79,9.79,0,0,0,16-7.6v-63.6c61.44.24,155.36,4.8,205.2,92.72a9.79,9.79,0,0,0,8.56,5,8.75,8.75,0,0,0,2.48-.32,9.75,9.75,0,0,0,7.28-9.44C391.28,246.36,378.72,196,343.52,153.16Z" transform="translate(0 -0.47)"/></g></g></svg>