<svg id="Calque_1" data-name="Calque 1" xmlns="http://www.w3.org/2000/svg" xmlns:xlink="http://www.w3.org/1999/xlink" viewBox="0 0 235.95 254.29"><defs><style>.cls-1{fill:none;}.cls-2{clip-path:url(#clip-path);}.cls-3{clip-path:url(#clip-path-2);}</style><clipPath id="clip-path" transform="translate(0 -0.72)"><rect class="cls-1" x="0.06" y="0.72" width="235.94" height="255"/></clipPath><clipPath id="clip-path-2" transform="translate(0 -0.72)"><rect class="cls-1" width="236" height="256"/></clipPath></defs><title>shield</title><g class="cls-2"><g class="cls-3"><path d="M16.23,55.1c.67,13.43,3.25,44.35,13.28,77.27C46.64,188.56,76.39,224.27,118,238.57c41.68-14.33,71.47-50.17,88.57-106.56A332.53,332.53,0,0,0,219.72,55.1C201.8,52.49,155.37,43.64,118,18.47,80.57,43.63,34.15,52.49,16.23,55.1ZM118,255a8,8,0,0,1-2.44-.38c-26.68-8.54-49.39-24.93-67.5-48.71-14.26-18.72-25.68-42-33.94-69.25C.16,90.72,0,49.8,0,48.08a8,8,0,0,1,7.23-8c.62-.06,62.75-6.44,106-37.88a8,8,0,0,1,9.4,0C166,33.68,228.1,40.06,228.72,40.12a8,8,0,0,1,7.23,8c0,1.72-.16,42.64-14.09,88.57-8.26,27.23-19.68,50.53-33.94,69.25-18.11,23.78-40.82,40.17-67.5,48.71A8,8,0,0,1,118,255Z" transform="translate(0 -0.72)"/></g></g><g class="cls-3"><path d="M113.69,166.82a8,8,0,0,1-5.2-1.92L79.57,140.15A8,8,0,0,1,90,128l22.5,19.24,44.59-58.49a8,8,0,0,1,12.73,9.7l-49.73,65.22a8,8,0,0,1-5.52,3.1A7.52,7.52,0,0,1,113.69,166.82Z" transform="translate(0 -0.72)"/></g></svg>