<svg id="Capa_1" data-name="Capa 1" xmlns="http://www.w3.org/2000/svg" viewBox="0 0 365.41 367.01"><title>telphone</title><path d="M360.3,267.48l-44.22-44.38c-8.54-8.88-18.86-13.58-29.83-13.58s-21.31,4.66-30.12,13.47l-23.58,23.5-1.81-.93-2.1-1.08c-2.82-1.41-5.49-2.75-7.66-4.09-23.53-14.95-44.94-34.46-65.43-59.63-9.16-11.57-15.47-21.31-20.2-31.21,5.31-5,10.3-10,15.15-14.95l1.71-1.73c1.14-1.14,2.27-2.29,3.41-3.45s2.24-2.28,3.36-3.4c9-9,13.76-19.53,13.76-30.45S168,74.11,159,65.11l-22-22c-2.48-2.48-5-5-7.45-7.61-4.75-4.91-9.89-10.14-15.25-15.09C105.75,12,95.55,7.55,84.76,7.55S63.61,12,54.85,20.41l-.06.06L27.23,48.26A62.58,62.58,0,0,0,8.7,88c-2,24.18,5.06,46.6,10.53,61.36,13.25,35.74,33,68.75,62.27,103.9,35.66,42.58,78.56,76.17,127.51,99.83,18.93,9,44.25,19.5,72.3,21.3,1.83.09,3.61.16,5.25.16,19.69,0,36.24-7.12,49.17-21.16l.22-.26a4.4,4.4,0,0,0,.37-.46,167.07,167.07,0,0,1,12.57-13l1.1-1.07c4.21-4,7.58-7.35,10.59-10.51,8.62-9,13.18-19.48,13.18-30.4S369.1,276.2,360.3,267.48ZM339.9,307.79a3.76,3.76,0,0,0-.52.55c-2.43,2.59-4.93,5-7.57,7.6L330,317.7A216.48,216.48,0,0,0,314.24,334c-7.53,8-16,11.6-27.6,11.6-1.17,0-2.38,0-3.48-.07-23.35-1.49-45.15-10.68-61.51-18.5a354.26,354.26,0,0,1-117.74-92.22c-27.15-32.72-45.4-63.09-57.42-95.58-7.27-19.46-10-34.54-8.81-48.87A33.53,33.53,0,0,1,47.76,68.71L75.2,41.27c3.29-3.08,6.65-4.7,9.73-4.7,3.82,0,7.11,2.49,9.21,4.59l.24.24.09.09c4.64,4.33,9.1,8.85,14.38,14.3q1.89,2,3.84,3.92c1.27,1.29,2.54,2.58,3.86,3.94l22,22c7.14,7.14,7.14,12.71,0,19.85l-2.35,2.37c-1.55,1.57-3,3-4.53,4.52l-.08.07c-7.16,7.33-13.31,13.45-20.06,19.5l-.06.06a4.56,4.56,0,0,0-.7.7c-7.94,8.11-6.59,16.28-4.85,21.79l.24.73.09.24c5.78,14,14,27.37,26.53,43.33l.23.26c22.51,27.7,46.17,49.21,72.32,65.75a112.62,112.62,0,0,0,10.23,5.58c2.82,1.41,5.49,2.74,7.69,4.11l.27.15.2.12c.26.16.52.32.78.45a21.11,21.11,0,0,0,9.6,2.4c5.43,0,10.42-2.23,14.81-6.62l27.56-27.56c2.27-2.27,5.78-5,9.6-5,4,0,7.32,2.94,8.93,4.7l.12.13,44.57,44.57C346.51,294.59,346.57,300.74,339.9,307.79Z" transform="translate(-8.35 -7.55)"/></svg>